<?xml version="1.0" encoding="utf-8"?>
<!-- Generator: Adobe Illustrator 19.0.0, SVG Export Plug-In . SVG Version: 6.00 Build 0)  -->
<svg version="1.1" id="Layer_1" xmlns="http://www.w3.org/2000/svg" xmlns:xlink="http://www.w3.org/1999/xlink" x="0px" y="0px"
	 viewBox="0 0 256 256" style="enable-background:new 0 0 256 256;" xml:space="preserve">
<style type="text/css">
	.st0{clip-path:url(#XMLID_38_);fill:#9D5B91;stroke:#9D5B91;}
	.st1{clip-path:url(#XMLID_38_);}
	.st2{fill:#FFFFFF;}
	.st3{opacity:0.2;}
	.st4{fill:#42210B;}
	.st5{fill:none;stroke:#000000;}
	.st6{fill:#FFFFFF;stroke:#000000;}
</style>
<g id="XMLID_29_">
	<defs>
		<rect id="XMLID_24_" x="0" width="256" height="256"/>
	</defs>
	<clipPath id="XMLID_38_">
		<use xlink:href="#XMLID_24_"  style="overflow:visible;"/>
	</clipPath>
	<rect id="XMLID_17_" x="0" class="st0" width="256" height="256"/>
	<g id="XMLID_1_" class="st1">
		<g id="XMLID_845_">
			<g id="XMLID_846_">
				<path id="XMLID_849_" class="st2" d="M216.2,115.7L216.2,115.7c0,1.5-0.7,2.8-1.8,3.6L110,223.7c-0.1,0.2-0.2,0.5-0.4,0.7
					c-0.9,0.9-2.1,1.3-3.3,1.3c-1.2,0-2.4-0.4-3.3-1.3c-0.2-0.2-0.3-0.4-0.4-0.7L25.9,147c-0.2-0.2-0.5-0.2-0.7-0.4
					c-0.9-0.9-1.3-2.1-1.3-3.3c0-1.2,0.4-2.4,1.3-3.3c0.2-0.2,0.4-0.3,0.7-0.4L130.2,35.2c0.8-1.1,2.1-1.8,3.6-1.8h0.1c0,0,0,0,0,0
					h18.4c0.6-6.9,3.4-12.9,7.6-16.9l0.1,0.1c0.9-0.9,2.1-1.5,3.5-1.5c2.7,0,4.9,2.3,4.9,5.2c0,1.7-0.8,3.2-2,4.1
					c-2.2,2-3.7,5.2-4.3,9H184c0,0,0,0,0,0h0.1c1.5,0,2.7,0.7,3.5,1.8l26.7,26.7c1.1,0.8,1.8,2.1,1.8,3.6v0.1c0,0,0,0,0,0V115.7
					C216.2,115.7,216.2,115.7,216.2,115.7z M207,114.1V67.2l-24.6-24.6h-19.3c0.8,2,1.9,3.8,3.3,5c0.2,0.2,0.4,0.2,0.6,0.4l0.1-0.1
					c4.8,4.4,7.9,11.5,7.9,19.5c0,0.2,0,0.4-0.1,0.5c5.5,3.2,9.2,9,9.2,15.8c0,10.1-8.2,18.3-18.3,18.3s-18.3-8.2-18.3-18.3
					c0-9.8,7.8-17.8,17.5-18.2c-0.4-4.1-2-7.5-4.3-9.7c-0.2-0.2-0.4-0.2-0.6-0.4l-0.1,0.1c-3.4-3.2-5.9-7.7-7.1-12.9h-17.4
					L34.9,143.3l71.5,71.5L207,114.1z M175,83.8c0-2.2-0.8-4.1-2-5.7c-2.8,7.1-5.9,8.7-5.9,8.7c-0.9,0.9-2.1,1.5-3.5,1.5
					c-2.7,0-4.9-2.3-4.9-5.2c0-1.7,0.8-3.2,2-4.1c1.1-1,2.1-2.5,2.8-4c-3.9,1-6.8,4.6-6.8,8.8c0,5.1,4.1,9.2,9.2,9.2
					C170.9,92.9,175,88.8,175,83.8z"/>
				<path id="XMLID_848_" class="st2" d="M132.5,149.4c1.7,1.7,1.7,4.6,0,6.3c-1.7,1.7-4.6,1.7-6.3,0l-32.3-32.3
					c-1.7-1.7-1.7-4.6,0-6.3c1.7-1.7,4.6-1.7,6.3,0L132.5,149.4z"/>
				<path id="XMLID_847_" class="st2" d="M114.2,167.7c1.7,1.7,1.7,4.6,0,6.3c-1.7,1.7-4.6,1.7-6.3,0l-32.3-32.3
					c-1.7-1.7-1.7-4.6,0-6.3c1.7-1.7,4.6-1.7,6.3,0L114.2,167.7z"/>
			</g>
		</g>
		<g id="XMLID_596_" class="st3">
			<g id="XMLID_837_">
				<g id="XMLID_838_">
					<path id="XMLID_841_" class="st4" d="M366.2,265.7L366.2,265.7c0,1.5-0.7,2.8-1.8,3.6L260,373.7c-0.1,0.2-0.2,0.5-0.4,0.7
						c-0.9,0.9-2.1,1.3-3.3,1.3c-1.2,0-2.4-0.4-3.3-1.3c-0.2-0.2-0.3-0.4-0.4-0.7L175.9,297c-0.2-0.2-0.5-0.2-0.7-0.4
						c-0.9-0.9-1.3-2.1-1.3-3.3c0-1.2,0.4-2.4,1.3-3.3c0.2-0.2,0.4-0.3,0.7-0.4l104.3-104.3c0.8-1.1,2.1-1.8,3.6-1.8h0.1
						c0,0,0,0,0,0h18.4c0.6-6.9,3.4-12.9,7.6-16.9l0.1,0.1c0.9-0.9,2.1-1.5,3.5-1.5c2.7,0,4.9,2.3,4.9,5.2c0,1.7-0.8,3.2-2,4.1
						c-2.2,2-3.7,5.2-4.3,9H334c0,0,0,0,0,0h0.1c1.5,0,2.7,0.7,3.5,1.8l26.7,26.7c1.1,0.8,1.8,2.1,1.8,3.6v0.1c0,0,0,0,0,0V265.7
						C366.2,265.7,366.2,265.7,366.2,265.7z M357,264.1v-46.9l-24.6-24.6h-19.3c0.8,2,1.9,3.8,3.3,5c0.2,0.2,0.4,0.2,0.6,0.4
						l0.1-0.1c4.8,4.4,7.9,11.5,7.9,19.5c0,0.2,0,0.4-0.1,0.5c5.5,3.2,9.2,9,9.2,15.8c0,10.1-8.2,18.3-18.3,18.3
						s-18.3-8.2-18.3-18.3c0-9.8,7.8-17.8,17.5-18.2c-0.4-4.1-2-7.5-4.3-9.7c-0.2-0.2-0.4-0.2-0.6-0.4l-0.1,0.1
						c-3.4-3.2-5.9-7.7-7.1-12.9h-17.4L184.9,293.3l71.5,71.5L357,264.1z M325,233.8c0-2.2-0.8-4.1-2-5.7c-2.8,7.1-5.9,8.7-5.9,8.7
						c-0.9,0.9-2.1,1.5-3.5,1.5c-2.7,0-4.9-2.3-4.9-5.2c0-1.7,0.8-3.2,2-4.1c1.1-1,2.1-2.5,2.8-4c-3.9,1-6.8,4.6-6.8,8.8
						c0,5.1,4.1,9.2,9.2,9.2C320.9,242.9,325,238.8,325,233.8z"/>
					<path id="XMLID_840_" class="st4" d="M282.5,299.4c1.7,1.7,1.7,4.6,0,6.3c-1.7,1.7-4.6,1.7-6.3,0l-32.3-32.3
						c-1.7-1.7-1.7-4.6,0-6.3c1.7-1.7,4.6-1.7,6.3,0L282.5,299.4z"/>
					<path id="XMLID_839_" class="st4" d="M264.2,317.7c1.7,1.7,1.7,4.6,0,6.3c-1.7,1.7-4.6,1.7-6.3,0l-32.3-32.3
						c-1.7-1.7-1.7-4.6,0-6.3c1.7-1.7,4.6-1.7,6.3,0L264.2,317.7z"/>
				</g>
			</g>
			<g id="XMLID_829_">
				<g id="XMLID_830_">
					<path id="XMLID_833_" class="st4" d="M361.2,260.7L361.2,260.7c0,1.5-0.7,2.8-1.8,3.6L255,368.7c-0.1,0.2-0.2,0.5-0.4,0.7
						c-0.9,0.9-2.1,1.3-3.3,1.3c-1.2,0-2.4-0.4-3.3-1.3c-0.2-0.2-0.3-0.4-0.4-0.7L170.9,292c-0.2-0.2-0.5-0.2-0.7-0.4
						c-0.9-0.9-1.3-2.1-1.3-3.3c0-1.2,0.4-2.4,1.3-3.3c0.2-0.2,0.4-0.3,0.7-0.4l104.3-104.3c0.8-1.1,2.1-1.8,3.6-1.8h0.1
						c0,0,0,0,0,0h18.4c0.6-6.9,3.4-12.9,7.6-16.9l0.1,0.1c0.9-0.9,2.1-1.5,3.5-1.5c2.7,0,4.9,2.3,4.9,5.2c0,1.7-0.8,3.2-2,4.1
						c-2.2,2-3.7,5.2-4.3,9H329c0,0,0,0,0,0h0.1c1.5,0,2.7,0.7,3.5,1.8l26.7,26.7c1.1,0.8,1.8,2.1,1.8,3.6v0.1c0,0,0,0,0,0V260.7
						C361.2,260.7,361.2,260.7,361.2,260.7z M352,259.1v-46.9l-24.6-24.6h-19.3c0.8,2,1.9,3.8,3.3,5c0.2,0.2,0.4,0.2,0.6,0.4
						l0.1-0.1c4.8,4.4,7.9,11.5,7.9,19.5c0,0.2,0,0.4-0.1,0.5c5.5,3.2,9.2,9,9.2,15.8c0,10.1-8.2,18.3-18.3,18.3
						s-18.3-8.2-18.3-18.3c0-9.8,7.8-17.8,17.5-18.2c-0.4-4.1-2-7.5-4.3-9.7c-0.2-0.2-0.4-0.2-0.6-0.4l-0.1,0.1
						c-3.4-3.2-5.9-7.7-7.1-12.9h-17.4L179.9,288.3l71.5,71.5L352,259.1z M320,228.8c0-2.2-0.8-4.1-2-5.7c-2.8,7.1-5.9,8.7-5.9,8.7
						c-0.9,0.9-2.1,1.5-3.5,1.5c-2.7,0-4.9-2.3-4.9-5.2c0-1.7,0.8-3.2,2-4.1c1.1-1,2.1-2.5,2.8-4c-3.9,1-6.8,4.6-6.8,8.8
						c0,5.1,4.1,9.2,9.2,9.2C315.9,237.9,320,233.8,320,228.8z"/>
					<path id="XMLID_832_" class="st4" d="M277.5,294.4c1.7,1.7,1.7,4.6,0,6.3c-1.7,1.7-4.6,1.7-6.3,0l-32.3-32.3
						c-1.7-1.7-1.7-4.6,0-6.3c1.7-1.7,4.6-1.7,6.3,0L277.5,294.4z"/>
					<path id="XMLID_831_" class="st4" d="M259.2,312.7c1.7,1.7,1.7,4.6,0,6.3c-1.7,1.7-4.6,1.7-6.3,0l-32.3-32.3
						c-1.7-1.7-1.7-4.6,0-6.3c1.7-1.7,4.6-1.7,6.3,0L259.2,312.7z"/>
				</g>
			</g>
			<g id="XMLID_821_">
				<g id="XMLID_822_">
					<path id="XMLID_825_" class="st4" d="M356.2,255.7L356.2,255.7c0,1.5-0.7,2.8-1.8,3.6L250,363.7c-0.1,0.2-0.2,0.5-0.4,0.7
						c-0.9,0.9-2.1,1.3-3.3,1.3c-1.2,0-2.4-0.4-3.3-1.3c-0.2-0.2-0.3-0.4-0.4-0.7L165.9,287c-0.2-0.2-0.5-0.2-0.7-0.4
						c-0.9-0.9-1.3-2.1-1.3-3.3c0-1.2,0.4-2.4,1.3-3.3c0.2-0.2,0.4-0.3,0.7-0.4l104.3-104.3c0.8-1.1,2.1-1.8,3.6-1.8h0.1
						c0,0,0,0,0,0h18.4c0.6-6.9,3.4-12.9,7.6-16.9l0.1,0.1c0.9-0.9,2.1-1.5,3.5-1.5c2.7,0,4.9,2.3,4.9,5.2c0,1.7-0.8,3.2-2,4.1
						c-2.2,2-3.7,5.2-4.3,9H324c0,0,0,0,0,0h0.1c1.5,0,2.7,0.7,3.5,1.8l26.7,26.7c1.1,0.8,1.8,2.1,1.8,3.6v0.1c0,0,0,0,0,0V255.7
						C356.2,255.7,356.2,255.7,356.2,255.7z M347,254.1v-46.9l-24.6-24.6h-19.3c0.8,2,1.9,3.8,3.3,5c0.2,0.2,0.4,0.2,0.6,0.4
						l0.1-0.1c4.8,4.4,7.9,11.5,7.9,19.5c0,0.2,0,0.4-0.1,0.5c5.5,3.2,9.2,9,9.2,15.8c0,10.1-8.2,18.3-18.3,18.3
						s-18.3-8.2-18.3-18.3c0-9.8,7.8-17.8,17.5-18.2c-0.4-4.1-2-7.5-4.3-9.7c-0.2-0.2-0.4-0.2-0.6-0.4l-0.1,0.1
						c-3.4-3.2-5.9-7.7-7.1-12.9h-17.4L174.9,283.3l71.5,71.5L347,254.1z M315,223.8c0-2.2-0.8-4.1-2-5.7c-2.8,7.1-5.9,8.7-5.9,8.7
						c-0.9,0.9-2.1,1.5-3.5,1.5c-2.7,0-4.9-2.3-4.9-5.2c0-1.7,0.8-3.2,2-4.1c1.1-1,2.1-2.5,2.8-4c-3.9,1-6.8,4.6-6.8,8.8
						c0,5.1,4.1,9.2,9.2,9.2C310.9,232.9,315,228.8,315,223.8z"/>
					<path id="XMLID_824_" class="st4" d="M272.5,289.4c1.7,1.7,1.7,4.6,0,6.3c-1.7,1.7-4.6,1.7-6.3,0l-32.3-32.3
						c-1.7-1.7-1.7-4.6,0-6.3c1.7-1.7,4.6-1.7,6.3,0L272.5,289.4z"/>
					<path id="XMLID_823_" class="st4" d="M254.2,307.7c1.7,1.7,1.7,4.6,0,6.3c-1.7,1.7-4.6,1.7-6.3,0l-32.3-32.3
						c-1.7-1.7-1.7-4.6,0-6.3c1.7-1.7,4.6-1.7,6.3,0L254.2,307.7z"/>
				</g>
			</g>
			<g id="XMLID_813_">
				<g id="XMLID_814_">
					<path id="XMLID_817_" class="st4" d="M351.2,250.7L351.2,250.7c0,1.5-0.7,2.8-1.8,3.6L245,358.7c-0.1,0.2-0.2,0.5-0.4,0.7
						c-0.9,0.9-2.1,1.3-3.3,1.3c-1.2,0-2.4-0.4-3.3-1.3c-0.2-0.2-0.3-0.4-0.4-0.7L160.9,282c-0.2-0.2-0.5-0.2-0.7-0.4
						c-0.9-0.9-1.3-2.1-1.3-3.3c0-1.2,0.4-2.4,1.3-3.3c0.2-0.2,0.4-0.3,0.7-0.4l104.3-104.3c0.8-1.1,2.1-1.8,3.6-1.8h0.1
						c0,0,0,0,0,0h18.4c0.6-6.9,3.4-12.9,7.6-16.9l0.1,0.1c0.9-0.9,2.1-1.5,3.5-1.5c2.7,0,4.9,2.3,4.9,5.2c0,1.7-0.8,3.2-2,4.1
						c-2.2,2-3.7,5.2-4.3,9H319c0,0,0,0,0,0h0.1c1.5,0,2.7,0.7,3.5,1.8l26.7,26.7c1.1,0.8,1.8,2.1,1.8,3.6v0.1c0,0,0,0,0,0V250.7
						C351.2,250.7,351.2,250.7,351.2,250.7z M342,249.1v-46.9l-24.6-24.6h-19.3c0.8,2,1.9,3.8,3.3,5c0.2,0.2,0.4,0.2,0.6,0.4
						l0.1-0.1c4.8,4.4,7.9,11.5,7.9,19.5c0,0.2,0,0.4-0.1,0.5c5.5,3.2,9.2,9,9.2,15.8c0,10.1-8.2,18.3-18.3,18.3
						s-18.3-8.2-18.3-18.3c0-9.8,7.8-17.8,17.5-18.2c-0.4-4.1-2-7.5-4.3-9.7c-0.2-0.2-0.4-0.2-0.6-0.4l-0.1,0.1
						c-3.4-3.2-5.9-7.7-7.1-12.9h-17.4L169.9,278.3l71.5,71.5L342,249.1z M310,218.8c0-2.2-0.8-4.1-2-5.7c-2.8,7.1-5.9,8.7-5.9,8.7
						c-0.9,0.9-2.1,1.5-3.5,1.5c-2.7,0-4.9-2.3-4.9-5.2c0-1.7,0.8-3.2,2-4.1c1.1-1,2.1-2.5,2.8-4c-3.9,1-6.8,4.6-6.8,8.8
						c0,5.1,4.1,9.2,9.2,9.2C305.9,227.9,310,223.8,310,218.8z"/>
					<path id="XMLID_816_" class="st4" d="M267.5,284.4c1.7,1.7,1.7,4.6,0,6.3c-1.7,1.7-4.6,1.7-6.3,0l-32.3-32.3
						c-1.7-1.7-1.7-4.6,0-6.3c1.7-1.7,4.6-1.7,6.3,0L267.5,284.4z"/>
					<path id="XMLID_815_" class="st4" d="M249.2,302.7c1.7,1.7,1.7,4.6,0,6.3c-1.7,1.7-4.6,1.7-6.3,0l-32.3-32.3
						c-1.7-1.7-1.7-4.6,0-6.3c1.7-1.7,4.6-1.7,6.3,0L249.2,302.7z"/>
				</g>
			</g>
			<g id="XMLID_805_">
				<g id="XMLID_806_">
					<path id="XMLID_809_" class="st4" d="M346.2,245.7L346.2,245.7c0,1.5-0.7,2.8-1.8,3.6L240,353.7c-0.1,0.2-0.2,0.5-0.4,0.7
						c-0.9,0.9-2.1,1.3-3.3,1.3c-1.2,0-2.4-0.4-3.3-1.3c-0.2-0.2-0.3-0.4-0.4-0.7L155.9,277c-0.2-0.2-0.5-0.2-0.7-0.4
						c-0.9-0.9-1.3-2.1-1.3-3.3c0-1.2,0.4-2.4,1.3-3.3c0.2-0.2,0.4-0.3,0.7-0.4l104.3-104.3c0.8-1.1,2.1-1.8,3.6-1.8h0.1
						c0,0,0,0,0,0h18.4c0.6-6.9,3.4-12.9,7.6-16.9l0.1,0.1c0.9-0.9,2.1-1.5,3.5-1.5c2.7,0,4.9,2.3,4.9,5.2c0,1.7-0.8,3.2-2,4.1
						c-2.2,2-3.7,5.2-4.3,9H314c0,0,0,0,0,0h0.1c1.5,0,2.7,0.7,3.5,1.8l26.7,26.7c1.1,0.8,1.8,2.1,1.8,3.6v0.1c0,0,0,0,0,0V245.7
						C346.2,245.7,346.2,245.7,346.2,245.7z M337,244.1v-46.9l-24.6-24.6h-19.3c0.8,2,1.9,3.8,3.3,5c0.2,0.2,0.4,0.2,0.6,0.4
						l0.1-0.1c4.8,4.4,7.9,11.5,7.9,19.5c0,0.2,0,0.4-0.1,0.5c5.5,3.2,9.2,9,9.2,15.8c0,10.1-8.2,18.3-18.3,18.3
						s-18.3-8.2-18.3-18.3c0-9.8,7.8-17.8,17.5-18.2c-0.4-4.1-2-7.5-4.3-9.7c-0.2-0.2-0.4-0.2-0.6-0.4l-0.1,0.1
						c-3.4-3.2-5.9-7.7-7.1-12.9h-17.4L164.9,273.3l71.5,71.5L337,244.1z M305,213.8c0-2.2-0.8-4.1-2-5.7c-2.8,7.1-5.9,8.7-5.9,8.7
						c-0.9,0.9-2.1,1.5-3.5,1.5c-2.7,0-4.9-2.3-4.9-5.2c0-1.7,0.8-3.2,2-4.1c1.1-1,2.1-2.5,2.8-4c-3.9,1-6.8,4.6-6.8,8.8
						c0,5.1,4.1,9.2,9.2,9.2C300.9,222.9,305,218.8,305,213.8z"/>
					<path id="XMLID_808_" class="st4" d="M262.5,279.4c1.7,1.7,1.7,4.6,0,6.3c-1.7,1.7-4.6,1.7-6.3,0l-32.3-32.3
						c-1.7-1.7-1.7-4.6,0-6.3c1.7-1.7,4.6-1.7,6.3,0L262.5,279.4z"/>
					<path id="XMLID_807_" class="st4" d="M244.2,297.7c1.7,1.7,1.7,4.6,0,6.3c-1.7,1.7-4.6,1.7-6.3,0l-32.3-32.3
						c-1.7-1.7-1.7-4.6,0-6.3c1.7-1.7,4.6-1.7,6.3,0L244.2,297.7z"/>
				</g>
			</g>
			<g id="XMLID_797_">
				<g id="XMLID_798_">
					<path id="XMLID_801_" class="st4" d="M341.2,240.7L341.2,240.7c0,1.5-0.7,2.8-1.8,3.6L235,348.7c-0.1,0.2-0.2,0.5-0.4,0.7
						c-0.9,0.9-2.1,1.3-3.3,1.3c-1.2,0-2.4-0.4-3.3-1.3c-0.2-0.2-0.3-0.4-0.4-0.7L150.9,272c-0.2-0.2-0.5-0.2-0.7-0.4
						c-0.9-0.9-1.3-2.1-1.3-3.3c0-1.2,0.4-2.4,1.3-3.3c0.2-0.2,0.4-0.3,0.7-0.4l104.3-104.3c0.8-1.1,2.1-1.8,3.6-1.8h0.1
						c0,0,0,0,0,0h18.4c0.6-6.9,3.4-12.9,7.6-16.9l0.1,0.1c0.9-0.9,2.1-1.5,3.5-1.5c2.7,0,4.9,2.3,4.9,5.2c0,1.7-0.8,3.2-2,4.1
						c-2.2,2-3.7,5.2-4.3,9H309c0,0,0,0,0,0h0.1c1.5,0,2.7,0.7,3.5,1.8l26.7,26.7c1.1,0.8,1.8,2.1,1.8,3.6v0.1c0,0,0,0,0,0V240.7
						C341.2,240.7,341.2,240.7,341.2,240.7z M332,239.1v-46.9l-24.6-24.6h-19.3c0.8,2,1.9,3.8,3.3,5c0.2,0.2,0.4,0.2,0.6,0.4
						l0.1-0.1c4.8,4.4,7.9,11.5,7.9,19.5c0,0.2,0,0.4-0.1,0.5c5.5,3.2,9.2,9,9.2,15.8c0,10.1-8.2,18.3-18.3,18.3
						s-18.3-8.2-18.3-18.3c0-9.8,7.8-17.8,17.5-18.2c-0.4-4.1-2-7.5-4.3-9.7c-0.2-0.2-0.4-0.2-0.6-0.4l-0.1,0.1
						c-3.4-3.2-5.9-7.7-7.1-12.9h-17.4L159.9,268.3l71.5,71.5L332,239.1z M300,208.8c0-2.2-0.8-4.1-2-5.7c-2.8,7.1-5.9,8.7-5.9,8.7
						c-0.9,0.9-2.1,1.5-3.5,1.5c-2.7,0-4.9-2.3-4.9-5.2c0-1.7,0.8-3.2,2-4.1c1.1-1,2.1-2.5,2.8-4c-3.9,1-6.8,4.6-6.8,8.8
						c0,5.1,4.1,9.2,9.2,9.2C295.9,217.9,300,213.8,300,208.8z"/>
					<path id="XMLID_800_" class="st4" d="M257.5,274.4c1.7,1.7,1.7,4.6,0,6.3c-1.7,1.7-4.6,1.7-6.3,0l-32.3-32.3
						c-1.7-1.7-1.7-4.6,0-6.3c1.7-1.7,4.6-1.7,6.3,0L257.5,274.4z"/>
					<path id="XMLID_799_" class="st4" d="M239.2,292.7c1.7,1.7,1.7,4.6,0,6.3c-1.7,1.7-4.6,1.7-6.3,0l-32.3-32.3
						c-1.7-1.7-1.7-4.6,0-6.3c1.7-1.7,4.6-1.7,6.3,0L239.2,292.7z"/>
				</g>
			</g>
			<g id="XMLID_789_">
				<g id="XMLID_790_">
					<path id="XMLID_793_" class="st4" d="M336.2,235.7L336.2,235.7c0,1.5-0.7,2.8-1.8,3.6L230,343.7c-0.1,0.2-0.2,0.5-0.4,0.7
						c-0.9,0.9-2.1,1.3-3.3,1.3c-1.2,0-2.4-0.4-3.3-1.3c-0.2-0.2-0.3-0.4-0.4-0.7L145.9,267c-0.2-0.2-0.5-0.2-0.7-0.4
						c-0.9-0.9-1.3-2.1-1.3-3.3c0-1.2,0.4-2.4,1.3-3.3c0.2-0.2,0.4-0.3,0.7-0.4l104.3-104.3c0.8-1.1,2.1-1.8,3.6-1.8h0.1
						c0,0,0,0,0,0h18.4c0.6-6.9,3.4-12.9,7.6-16.9l0.1,0.1c0.9-0.9,2.1-1.5,3.5-1.5c2.7,0,4.9,2.3,4.9,5.2c0,1.7-0.8,3.2-2,4.1
						c-2.2,2-3.7,5.2-4.3,9H304c0,0,0,0,0,0h0.1c1.5,0,2.7,0.7,3.5,1.8l26.7,26.7c1.1,0.8,1.8,2.1,1.8,3.6v0.1c0,0,0,0,0,0V235.7
						C336.2,235.7,336.2,235.7,336.2,235.7z M327,234.1v-46.9l-24.6-24.6h-19.3c0.8,2,1.9,3.8,3.3,5c0.2,0.2,0.4,0.2,0.6,0.4
						l0.1-0.1c4.8,4.4,7.9,11.5,7.9,19.5c0,0.2,0,0.4-0.1,0.5c5.5,3.2,9.2,9,9.2,15.8c0,10.1-8.2,18.3-18.3,18.3
						s-18.3-8.2-18.3-18.3c0-9.8,7.8-17.8,17.5-18.2c-0.4-4.1-2-7.5-4.3-9.7c-0.2-0.2-0.4-0.2-0.6-0.4l-0.1,0.1
						c-3.4-3.2-5.9-7.7-7.1-12.9h-17.4L154.9,263.3l71.5,71.5L327,234.1z M295,203.8c0-2.2-0.8-4.1-2-5.7c-2.8,7.1-5.9,8.7-5.9,8.7
						c-0.9,0.9-2.1,1.5-3.5,1.5c-2.7,0-4.9-2.3-4.9-5.2c0-1.7,0.8-3.2,2-4.1c1.1-1,2.1-2.5,2.8-4c-3.9,1-6.8,4.6-6.8,8.8
						c0,5.1,4.1,9.2,9.2,9.2C290.9,212.9,295,208.8,295,203.8z"/>
					<path id="XMLID_792_" class="st4" d="M252.5,269.4c1.7,1.7,1.7,4.6,0,6.3c-1.7,1.7-4.6,1.7-6.3,0l-32.3-32.3
						c-1.7-1.7-1.7-4.6,0-6.3c1.7-1.7,4.6-1.7,6.3,0L252.5,269.4z"/>
					<path id="XMLID_791_" class="st4" d="M234.2,287.7c1.7,1.7,1.7,4.6,0,6.3c-1.7,1.7-4.6,1.7-6.3,0l-32.3-32.3
						c-1.7-1.7-1.7-4.6,0-6.3c1.7-1.7,4.6-1.7,6.3,0L234.2,287.7z"/>
				</g>
			</g>
			<g id="XMLID_781_">
				<g id="XMLID_782_">
					<path id="XMLID_785_" class="st4" d="M331.2,230.7L331.2,230.7c0,1.5-0.7,2.8-1.8,3.6L225,338.7c-0.1,0.2-0.2,0.5-0.4,0.7
						c-0.9,0.9-2.1,1.3-3.3,1.3c-1.2,0-2.4-0.4-3.3-1.3c-0.2-0.2-0.3-0.4-0.4-0.7L140.9,262c-0.2-0.2-0.5-0.2-0.7-0.4
						c-0.9-0.9-1.3-2.1-1.3-3.3c0-1.2,0.4-2.4,1.3-3.3c0.2-0.2,0.4-0.3,0.7-0.4l104.3-104.3c0.8-1.1,2.1-1.8,3.6-1.8h0.1
						c0,0,0,0,0,0h18.4c0.6-6.9,3.4-12.9,7.6-16.9l0.1,0.1c0.9-0.9,2.1-1.5,3.5-1.5c2.7,0,4.9,2.3,4.9,5.2c0,1.7-0.8,3.2-2,4.1
						c-2.2,2-3.7,5.2-4.3,9H299c0,0,0,0,0,0h0.1c1.5,0,2.7,0.7,3.5,1.8l26.7,26.7c1.1,0.8,1.8,2.1,1.8,3.6v0.1c0,0,0,0,0,0V230.7
						C331.2,230.7,331.2,230.7,331.2,230.7z M322,229.1v-46.9l-24.6-24.6h-19.3c0.8,2,1.9,3.8,3.3,5c0.2,0.2,0.4,0.2,0.6,0.4
						l0.1-0.1c4.8,4.4,7.9,11.5,7.9,19.5c0,0.2,0,0.4-0.1,0.5c5.5,3.2,9.2,9,9.2,15.8c0,10.1-8.2,18.3-18.3,18.3
						s-18.3-8.2-18.3-18.3c0-9.8,7.8-17.8,17.5-18.2c-0.4-4.1-2-7.5-4.3-9.7c-0.2-0.2-0.4-0.2-0.6-0.4l-0.1,0.1
						c-3.4-3.2-5.9-7.7-7.1-12.9h-17.4L149.9,258.3l71.5,71.5L322,229.1z M290,198.8c0-2.2-0.8-4.1-2-5.7c-2.8,7.1-5.9,8.7-5.9,8.7
						c-0.9,0.9-2.1,1.5-3.5,1.5c-2.7,0-4.9-2.3-4.9-5.2c0-1.7,0.8-3.2,2-4.1c1.1-1,2.1-2.5,2.8-4c-3.9,1-6.8,4.6-6.8,8.8
						c0,5.1,4.1,9.2,9.2,9.2C285.9,207.9,290,203.8,290,198.8z"/>
					<path id="XMLID_784_" class="st4" d="M247.5,264.4c1.7,1.7,1.7,4.6,0,6.3c-1.7,1.7-4.6,1.7-6.3,0l-32.3-32.3
						c-1.7-1.7-1.7-4.6,0-6.3c1.7-1.7,4.6-1.7,6.3,0L247.5,264.4z"/>
					<path id="XMLID_783_" class="st4" d="M229.2,282.7c1.7,1.7,1.7,4.6,0,6.3c-1.7,1.7-4.6,1.7-6.3,0l-32.3-32.3
						c-1.7-1.7-1.7-4.6,0-6.3c1.7-1.7,4.6-1.7,6.3,0L229.2,282.7z"/>
				</g>
			</g>
			<g id="XMLID_773_">
				<g id="XMLID_774_">
					<path id="XMLID_777_" class="st4" d="M326.2,225.7L326.2,225.7c0,1.5-0.7,2.8-1.8,3.6L220,333.7c-0.1,0.2-0.2,0.5-0.4,0.7
						c-0.9,0.9-2.1,1.3-3.3,1.3c-1.2,0-2.4-0.4-3.3-1.3c-0.2-0.2-0.3-0.4-0.4-0.7L135.9,257c-0.2-0.2-0.5-0.2-0.7-0.4
						c-0.9-0.9-1.3-2.1-1.3-3.3c0-1.2,0.4-2.4,1.3-3.3c0.2-0.2,0.4-0.3,0.7-0.4l104.3-104.3c0.8-1.1,2.1-1.8,3.6-1.8h0.1
						c0,0,0,0,0,0h18.4c0.6-6.9,3.4-12.9,7.6-16.9l0.1,0.1c0.9-0.9,2.1-1.5,3.5-1.5c2.7,0,4.9,2.3,4.9,5.2c0,1.7-0.8,3.2-2,4.1
						c-2.2,2-3.7,5.2-4.3,9H294c0,0,0,0,0,0h0.1c1.5,0,2.7,0.7,3.5,1.8l26.7,26.7c1.1,0.8,1.8,2.1,1.8,3.6v0.1c0,0,0,0,0,0V225.7
						C326.2,225.7,326.2,225.7,326.2,225.7z M317,224.1v-46.9l-24.6-24.6h-19.3c0.8,2,1.9,3.8,3.3,5c0.2,0.2,0.4,0.2,0.6,0.4
						l0.1-0.1c4.8,4.4,7.9,11.5,7.9,19.5c0,0.2,0,0.4-0.1,0.5c5.5,3.2,9.2,9,9.2,15.8c0,10.1-8.2,18.3-18.3,18.3
						s-18.3-8.2-18.3-18.3c0-9.8,7.8-17.8,17.5-18.2c-0.4-4.1-2-7.5-4.3-9.7c-0.2-0.2-0.4-0.2-0.6-0.4l-0.1,0.1
						c-3.4-3.2-5.9-7.7-7.1-12.9h-17.4L144.9,253.3l71.5,71.5L317,224.1z M285,193.8c0-2.2-0.8-4.1-2-5.7c-2.8,7.1-5.9,8.7-5.9,8.7
						c-0.9,0.9-2.1,1.5-3.5,1.5c-2.7,0-4.9-2.3-4.9-5.2c0-1.7,0.8-3.2,2-4.1c1.1-1,2.1-2.5,2.8-4c-3.9,1-6.8,4.6-6.8,8.8
						c0,5.1,4.1,9.2,9.2,9.2C280.9,202.9,285,198.8,285,193.8z"/>
					<path id="XMLID_776_" class="st4" d="M242.5,259.4c1.7,1.7,1.7,4.6,0,6.3c-1.7,1.7-4.6,1.7-6.3,0l-32.3-32.3
						c-1.7-1.7-1.7-4.6,0-6.3c1.7-1.7,4.6-1.7,6.3,0L242.5,259.4z"/>
					<path id="XMLID_775_" class="st4" d="M224.2,277.7c1.7,1.7,1.7,4.6,0,6.3c-1.7,1.7-4.6,1.7-6.3,0l-32.3-32.3
						c-1.7-1.7-1.7-4.6,0-6.3c1.7-1.7,4.6-1.7,6.3,0L224.2,277.7z"/>
				</g>
			</g>
			<g id="XMLID_765_">
				<g id="XMLID_766_">
					<path id="XMLID_769_" class="st4" d="M321.2,220.7L321.2,220.7c0,1.5-0.7,2.8-1.8,3.6L215,328.7c-0.1,0.2-0.2,0.5-0.4,0.7
						c-0.9,0.9-2.1,1.3-3.3,1.3c-1.2,0-2.4-0.4-3.3-1.3c-0.2-0.2-0.3-0.4-0.4-0.7L130.9,252c-0.2-0.2-0.5-0.2-0.7-0.4
						c-0.9-0.9-1.3-2.1-1.3-3.3c0-1.2,0.4-2.4,1.3-3.3c0.2-0.2,0.4-0.3,0.7-0.4l104.3-104.3c0.8-1.1,2.1-1.8,3.6-1.8h0.1
						c0,0,0,0,0,0h18.4c0.6-6.9,3.4-12.9,7.6-16.9l0.1,0.1c0.9-0.9,2.1-1.5,3.5-1.5c2.7,0,4.9,2.3,4.9,5.2c0,1.7-0.8,3.2-2,4.1
						c-2.2,2-3.7,5.2-4.3,9H289c0,0,0,0,0,0h0.1c1.5,0,2.7,0.7,3.5,1.8l26.7,26.7c1.1,0.8,1.8,2.1,1.8,3.6v0.1c0,0,0,0,0,0V220.7
						C321.2,220.7,321.2,220.7,321.2,220.7z M312,219.1v-46.9l-24.6-24.6h-19.3c0.8,2,1.9,3.8,3.3,5c0.2,0.2,0.4,0.2,0.6,0.4
						l0.1-0.1c4.8,4.4,7.9,11.5,7.9,19.5c0,0.2,0,0.4-0.1,0.5c5.5,3.2,9.2,9,9.2,15.8c0,10.1-8.2,18.3-18.3,18.3
						s-18.3-8.2-18.3-18.3c0-9.8,7.8-17.8,17.5-18.2c-0.4-4.1-2-7.5-4.3-9.7c-0.2-0.2-0.4-0.2-0.6-0.4l-0.1,0.1
						c-3.4-3.2-5.9-7.7-7.1-12.9h-17.4L139.9,248.3l71.5,71.5L312,219.1z M280,188.8c0-2.2-0.8-4.1-2-5.7c-2.8,7.1-5.9,8.7-5.9,8.7
						c-0.9,0.9-2.1,1.5-3.5,1.5c-2.7,0-4.9-2.3-4.9-5.2c0-1.7,0.8-3.2,2-4.1c1.1-1,2.1-2.5,2.8-4c-3.9,1-6.8,4.6-6.8,8.8
						c0,5.1,4.1,9.2,9.2,9.2C275.9,197.9,280,193.8,280,188.8z"/>
					<path id="XMLID_768_" class="st4" d="M237.5,254.4c1.7,1.7,1.7,4.6,0,6.3c-1.7,1.7-4.6,1.7-6.3,0l-32.3-32.3
						c-1.7-1.7-1.7-4.6,0-6.3c1.7-1.7,4.6-1.7,6.3,0L237.5,254.4z"/>
					<path id="XMLID_767_" class="st4" d="M219.2,272.7c1.7,1.7,1.7,4.6,0,6.3c-1.7,1.7-4.6,1.7-6.3,0l-32.3-32.3
						c-1.7-1.7-1.7-4.6,0-6.3c1.7-1.7,4.6-1.7,6.3,0L219.2,272.7z"/>
				</g>
			</g>
			<g id="XMLID_757_">
				<g id="XMLID_758_">
					<path id="XMLID_761_" class="st4" d="M316.2,215.7L316.2,215.7c0,1.5-0.7,2.8-1.8,3.6L210,323.7c-0.1,0.2-0.2,0.5-0.4,0.7
						c-0.9,0.9-2.1,1.3-3.3,1.3c-1.2,0-2.4-0.4-3.3-1.3c-0.2-0.2-0.3-0.4-0.4-0.7L125.9,247c-0.2-0.2-0.5-0.2-0.7-0.4
						c-0.9-0.9-1.3-2.1-1.3-3.3c0-1.2,0.4-2.4,1.3-3.3c0.2-0.2,0.4-0.3,0.7-0.4l104.3-104.3c0.8-1.1,2.1-1.8,3.6-1.8h0.1
						c0,0,0,0,0,0h18.4c0.6-6.9,3.4-12.9,7.6-16.9l0.1,0.1c0.9-0.9,2.1-1.5,3.5-1.5c2.7,0,4.9,2.3,4.9,5.2c0,1.7-0.8,3.2-2,4.1
						c-2.2,2-3.7,5.2-4.3,9H284c0,0,0,0,0,0h0.1c1.5,0,2.7,0.7,3.5,1.8l26.7,26.7c1.1,0.8,1.8,2.1,1.8,3.6v0.1c0,0,0,0,0,0V215.7
						C316.2,215.7,316.2,215.7,316.2,215.7z M307,214.1v-46.9l-24.6-24.6h-19.3c0.8,2,1.9,3.8,3.3,5c0.2,0.2,0.4,0.2,0.6,0.4
						l0.1-0.1c4.8,4.4,7.9,11.5,7.9,19.5c0,0.2,0,0.4-0.1,0.5c5.5,3.2,9.2,9,9.2,15.8c0,10.1-8.2,18.3-18.3,18.3
						c-10.1,0-18.3-8.2-18.3-18.3c0-9.8,7.8-17.8,17.5-18.2c-0.4-4.1-2-7.5-4.3-9.7c-0.2-0.2-0.4-0.2-0.6-0.4l-0.1,0.1
						c-3.4-3.2-5.9-7.7-7.1-12.9h-17.4L134.9,243.3l71.5,71.5L307,214.1z M275,183.8c0-2.2-0.8-4.1-2-5.7c-2.8,7.1-5.9,8.7-5.9,8.7
						c-0.9,0.9-2.1,1.5-3.5,1.5c-2.7,0-4.9-2.3-4.9-5.2c0-1.7,0.8-3.2,2-4.1c1.1-1,2.1-2.5,2.8-4c-3.9,1-6.8,4.6-6.8,8.8
						c0,5.1,4.1,9.2,9.2,9.2C270.9,192.9,275,188.8,275,183.8z"/>
					<path id="XMLID_760_" class="st4" d="M232.5,249.4c1.7,1.7,1.7,4.6,0,6.3c-1.7,1.7-4.6,1.7-6.3,0l-32.3-32.3
						c-1.7-1.7-1.7-4.6,0-6.3c1.7-1.7,4.6-1.7,6.3,0L232.5,249.4z"/>
					<path id="XMLID_759_" class="st4" d="M214.2,267.7c1.7,1.7,1.7,4.6,0,6.3c-1.7,1.7-4.6,1.7-6.3,0l-32.3-32.3
						c-1.7-1.7-1.7-4.6,0-6.3c1.7-1.7,4.6-1.7,6.3,0L214.2,267.7z"/>
				</g>
			</g>
			<g id="XMLID_749_">
				<g id="XMLID_750_">
					<path id="XMLID_753_" class="st4" d="M311.2,210.7L311.2,210.7c0,1.5-0.7,2.8-1.8,3.6L205,318.7c-0.1,0.2-0.2,0.5-0.4,0.7
						c-0.9,0.9-2.1,1.3-3.3,1.3c-1.2,0-2.4-0.4-3.3-1.3c-0.2-0.2-0.3-0.4-0.4-0.7L120.9,242c-0.2-0.2-0.5-0.2-0.7-0.4
						c-0.9-0.9-1.3-2.1-1.3-3.3c0-1.2,0.4-2.4,1.3-3.3c0.2-0.2,0.4-0.3,0.7-0.4l104.3-104.3c0.8-1.1,2.1-1.8,3.6-1.8h0.1
						c0,0,0,0,0,0h18.4c0.6-6.9,3.4-12.9,7.6-16.9l0.1,0.1c0.9-0.9,2.1-1.5,3.5-1.5c2.7,0,4.9,2.3,4.9,5.2c0,1.7-0.8,3.2-2,4.1
						c-2.2,2-3.7,5.2-4.3,9H279c0,0,0,0,0,0h0.1c1.5,0,2.7,0.7,3.5,1.8l26.7,26.7c1.1,0.8,1.8,2.1,1.8,3.6v0.1c0,0,0,0,0,0V210.7
						C311.2,210.7,311.2,210.7,311.2,210.7z M302,209.1v-46.9l-24.6-24.6h-19.3c0.8,2,1.9,3.8,3.3,5c0.2,0.2,0.4,0.2,0.6,0.4
						l0.1-0.1c4.8,4.4,7.9,11.5,7.9,19.5c0,0.2,0,0.4-0.1,0.5c5.5,3.2,9.2,9,9.2,15.8c0,10.1-8.2,18.3-18.3,18.3
						c-10.1,0-18.3-8.2-18.3-18.3c0-9.8,7.8-17.8,17.5-18.2c-0.4-4.1-2-7.5-4.3-9.7c-0.2-0.2-0.4-0.2-0.6-0.4l-0.1,0.1
						c-3.4-3.2-5.9-7.7-7.1-12.9h-17.4L129.9,238.3l71.5,71.5L302,209.1z M270,178.8c0-2.2-0.8-4.1-2-5.7c-2.8,7.1-5.9,8.7-5.9,8.7
						c-0.9,0.9-2.1,1.5-3.5,1.5c-2.7,0-4.9-2.3-4.9-5.2c0-1.7,0.8-3.2,2-4.1c1.1-1,2.1-2.5,2.8-4c-3.9,1-6.8,4.6-6.8,8.8
						c0,5.1,4.1,9.2,9.2,9.2C265.9,187.9,270,183.8,270,178.8z"/>
					<path id="XMLID_752_" class="st4" d="M227.5,244.4c1.7,1.7,1.7,4.6,0,6.3c-1.7,1.7-4.6,1.7-6.3,0l-32.3-32.3
						c-1.7-1.7-1.7-4.6,0-6.3c1.7-1.7,4.6-1.7,6.3,0L227.5,244.4z"/>
					<path id="XMLID_751_" class="st4" d="M209.2,262.7c1.7,1.7,1.7,4.6,0,6.3c-1.7,1.7-4.6,1.7-6.3,0l-32.3-32.3
						c-1.7-1.7-1.7-4.6,0-6.3c1.7-1.7,4.6-1.7,6.3,0L209.2,262.7z"/>
				</g>
			</g>
			<g id="XMLID_741_">
				<g id="XMLID_742_">
					<path id="XMLID_745_" class="st4" d="M306.2,205.7L306.2,205.7c0,1.5-0.7,2.8-1.8,3.6L200,313.7c-0.1,0.2-0.2,0.5-0.4,0.7
						c-0.9,0.9-2.1,1.3-3.3,1.3c-1.2,0-2.4-0.4-3.3-1.3c-0.2-0.2-0.3-0.4-0.4-0.7L115.9,237c-0.2-0.2-0.5-0.2-0.7-0.4
						c-0.9-0.9-1.3-2.1-1.3-3.3c0-1.2,0.4-2.4,1.3-3.3c0.2-0.2,0.4-0.3,0.7-0.4l104.3-104.3c0.8-1.1,2.1-1.8,3.6-1.8h0.1
						c0,0,0,0,0,0h18.4c0.6-6.9,3.4-12.9,7.6-16.9l0.1,0.1c0.9-0.9,2.1-1.5,3.5-1.5c2.7,0,4.9,2.3,4.9,5.2c0,1.7-0.8,3.2-2,4.1
						c-2.2,2-3.7,5.2-4.3,9H274c0,0,0,0,0,0h0.1c1.5,0,2.7,0.7,3.5,1.8l26.7,26.7c1.1,0.8,1.8,2.1,1.8,3.6v0.1c0,0,0,0,0,0V205.7
						C306.2,205.7,306.2,205.7,306.2,205.7z M297,204.1v-46.9l-24.6-24.6h-19.3c0.8,2,1.9,3.8,3.3,5c0.2,0.2,0.4,0.2,0.6,0.4
						l0.1-0.1c4.8,4.4,7.9,11.5,7.9,19.5c0,0.2,0,0.4-0.1,0.5c5.5,3.2,9.2,9,9.2,15.8c0,10.1-8.2,18.3-18.3,18.3
						c-10.1,0-18.3-8.2-18.3-18.3c0-9.8,7.8-17.8,17.5-18.2c-0.4-4.1-2-7.5-4.3-9.7c-0.2-0.2-0.4-0.2-0.6-0.4l-0.1,0.1
						c-3.4-3.2-5.9-7.7-7.1-12.9h-17.4L124.9,233.3l71.5,71.5L297,204.1z M265,173.8c0-2.2-0.8-4.1-2-5.7c-2.8,7.1-5.9,8.7-5.9,8.7
						c-0.9,0.9-2.1,1.5-3.5,1.5c-2.7,0-4.9-2.3-4.9-5.2c0-1.7,0.8-3.2,2-4.1c1.1-1,2.1-2.5,2.8-4c-3.9,1-6.8,4.6-6.8,8.8
						c0,5.1,4.1,9.2,9.2,9.2C260.9,182.9,265,178.8,265,173.8z"/>
					<path id="XMLID_744_" class="st4" d="M222.5,239.4c1.7,1.7,1.7,4.6,0,6.3c-1.7,1.7-4.6,1.7-6.3,0l-32.3-32.3
						c-1.7-1.7-1.7-4.6,0-6.3c1.7-1.7,4.6-1.7,6.3,0L222.5,239.4z"/>
					<path id="XMLID_743_" class="st4" d="M204.2,257.7c1.7,1.7,1.7,4.6,0,6.3c-1.7,1.7-4.6,1.7-6.3,0l-32.3-32.3
						c-1.7-1.7-1.7-4.6,0-6.3c1.7-1.7,4.6-1.7,6.3,0L204.2,257.7z"/>
				</g>
			</g>
			<g id="XMLID_733_">
				<g id="XMLID_734_">
					<path id="XMLID_737_" class="st4" d="M301.2,200.7L301.2,200.7c0,1.5-0.7,2.8-1.8,3.6L195,308.7c-0.1,0.2-0.2,0.5-0.4,0.7
						c-0.9,0.9-2.1,1.3-3.3,1.3c-1.2,0-2.4-0.4-3.3-1.3c-0.2-0.2-0.3-0.4-0.4-0.7L110.9,232c-0.2-0.2-0.5-0.2-0.7-0.4
						c-0.9-0.9-1.3-2.1-1.3-3.3c0-1.2,0.4-2.4,1.3-3.3c0.2-0.2,0.4-0.3,0.7-0.4l104.3-104.3c0.8-1.1,2.1-1.8,3.6-1.8h0.1
						c0,0,0,0,0,0h18.4c0.6-6.9,3.4-12.9,7.6-16.9l0.1,0.1c0.9-0.9,2.1-1.5,3.5-1.5c2.7,0,4.9,2.3,4.9,5.2c0,1.7-0.8,3.2-2,4.1
						c-2.2,2-3.7,5.2-4.3,9H269c0,0,0,0,0,0h0.1c1.5,0,2.7,0.7,3.5,1.8l26.7,26.7c1.1,0.8,1.8,2.1,1.8,3.6v0.1c0,0,0,0,0,0V200.7
						C301.2,200.7,301.2,200.7,301.2,200.7z M292,199.1v-46.9l-24.6-24.6h-19.3c0.8,2,1.9,3.8,3.3,5c0.2,0.2,0.4,0.2,0.6,0.4
						l0.1-0.1c4.8,4.4,7.9,11.5,7.9,19.5c0,0.2,0,0.4-0.1,0.5c5.5,3.2,9.2,9,9.2,15.8c0,10.1-8.2,18.3-18.3,18.3
						c-10.1,0-18.3-8.2-18.3-18.3c0-9.8,7.8-17.8,17.5-18.2c-0.4-4.1-2-7.5-4.3-9.7c-0.2-0.2-0.4-0.2-0.6-0.4l-0.1,0.1
						c-3.4-3.2-5.9-7.7-7.1-12.9h-17.4L119.9,228.3l71.5,71.5L292,199.1z M260,168.8c0-2.2-0.8-4.1-2-5.7c-2.8,7.1-5.9,8.7-5.9,8.7
						c-0.9,0.9-2.1,1.5-3.5,1.5c-2.7,0-4.9-2.3-4.9-5.2c0-1.7,0.8-3.2,2-4.1c1.1-1,2.1-2.5,2.8-4c-3.9,1-6.8,4.6-6.8,8.8
						c0,5.1,4.1,9.2,9.2,9.2C255.9,177.9,260,173.8,260,168.8z"/>
					<path id="XMLID_736_" class="st4" d="M217.5,234.4c1.7,1.7,1.7,4.6,0,6.3c-1.7,1.7-4.6,1.7-6.3,0l-32.3-32.3
						c-1.7-1.7-1.7-4.6,0-6.3c1.7-1.7,4.6-1.7,6.3,0L217.5,234.4z"/>
					<path id="XMLID_735_" class="st4" d="M199.2,252.7c1.7,1.7,1.7,4.6,0,6.3c-1.7,1.7-4.6,1.7-6.3,0l-32.3-32.3
						c-1.7-1.7-1.7-4.6,0-6.3c1.7-1.7,4.6-1.7,6.3,0L199.2,252.7z"/>
				</g>
			</g>
			<g id="XMLID_725_">
				<g id="XMLID_726_">
					<path id="XMLID_729_" class="st4" d="M296.2,195.7L296.2,195.7c0,1.5-0.7,2.8-1.8,3.6L190,303.7c-0.1,0.2-0.2,0.5-0.4,0.7
						c-0.9,0.9-2.1,1.3-3.3,1.3c-1.2,0-2.4-0.4-3.3-1.3c-0.2-0.2-0.3-0.4-0.4-0.7L105.9,227c-0.2-0.2-0.5-0.2-0.7-0.4
						c-0.9-0.9-1.3-2.1-1.3-3.3c0-1.2,0.4-2.4,1.3-3.3c0.2-0.2,0.4-0.3,0.7-0.4l104.3-104.3c0.8-1.1,2.1-1.8,3.6-1.8h0.1
						c0,0,0,0,0,0h18.4c0.6-6.9,3.4-12.9,7.6-16.9l0.1,0.1c0.9-0.9,2.1-1.5,3.5-1.5c2.7,0,4.9,2.3,4.9,5.2c0,1.7-0.8,3.2-2,4.1
						c-2.2,2-3.7,5.2-4.3,9H264c0,0,0,0,0,0h0.1c1.5,0,2.7,0.7,3.5,1.8l26.7,26.7c1.1,0.8,1.8,2.1,1.8,3.6v0.1c0,0,0,0,0,0V195.7
						C296.2,195.7,296.2,195.7,296.2,195.7z M287,194.1v-46.9l-24.6-24.6h-19.3c0.8,2,1.9,3.8,3.3,5c0.2,0.2,0.4,0.2,0.6,0.4
						l0.1-0.1c4.8,4.4,7.9,11.5,7.9,19.5c0,0.2,0,0.4-0.1,0.5c5.5,3.2,9.2,9,9.2,15.8c0,10.1-8.2,18.3-18.3,18.3
						s-18.3-8.2-18.3-18.3c0-9.8,7.8-17.8,17.5-18.2c-0.4-4.1-2-7.5-4.3-9.7c-0.2-0.2-0.4-0.2-0.6-0.4l-0.1,0.1
						c-3.4-3.2-5.9-7.7-7.1-12.9h-17.4L114.9,223.3l71.5,71.5L287,194.1z M255,163.8c0-2.2-0.8-4.1-2-5.7c-2.8,7.1-5.9,8.7-5.9,8.7
						c-0.9,0.9-2.1,1.5-3.5,1.5c-2.7,0-4.9-2.3-4.9-5.2c0-1.7,0.8-3.2,2-4.1c1.1-1,2.1-2.5,2.8-4c-3.9,1-6.8,4.6-6.8,8.8
						c0,5.1,4.1,9.2,9.2,9.2C250.9,172.9,255,168.8,255,163.8z"/>
					<path id="XMLID_728_" class="st4" d="M212.5,229.4c1.7,1.7,1.7,4.6,0,6.3c-1.7,1.7-4.6,1.7-6.3,0l-32.3-32.3
						c-1.7-1.7-1.7-4.6,0-6.3c1.7-1.7,4.6-1.7,6.3,0L212.5,229.4z"/>
					<path id="XMLID_727_" class="st4" d="M194.2,247.7c1.7,1.7,1.7,4.6,0,6.3c-1.7,1.7-4.6,1.7-6.3,0l-32.3-32.3
						c-1.7-1.7-1.7-4.6,0-6.3c1.7-1.7,4.6-1.7,6.3,0L194.2,247.7z"/>
				</g>
			</g>
			<g id="XMLID_717_">
				<g id="XMLID_718_">
					<path id="XMLID_721_" class="st4" d="M291.2,190.7L291.2,190.7c0,1.5-0.7,2.8-1.8,3.6L185,298.7c-0.1,0.2-0.2,0.5-0.4,0.7
						c-0.9,0.9-2.1,1.3-3.3,1.3c-1.2,0-2.4-0.4-3.3-1.3c-0.2-0.2-0.3-0.4-0.4-0.7L100.9,222c-0.2-0.2-0.5-0.2-0.7-0.4
						c-0.9-0.9-1.3-2.1-1.3-3.3c0-1.2,0.4-2.4,1.3-3.3c0.2-0.2,0.4-0.3,0.7-0.4l104.3-104.3c0.8-1.1,2.1-1.8,3.6-1.8h0.1
						c0,0,0,0,0,0h18.4c0.6-6.9,3.4-12.9,7.6-16.9l0.1,0.1c0.9-0.9,2.1-1.5,3.5-1.5c2.7,0,4.9,2.3,4.9,5.2c0,1.7-0.8,3.2-2,4.1
						c-2.2,2-3.7,5.2-4.3,9H259c0,0,0,0,0,0h0.1c1.5,0,2.7,0.7,3.5,1.8l26.7,26.7c1.1,0.8,1.8,2.1,1.8,3.6v0.1c0,0,0,0,0,0V190.7
						C291.2,190.7,291.2,190.7,291.2,190.7z M282,189.1v-46.9l-24.6-24.6h-19.3c0.8,2,1.9,3.8,3.3,5c0.2,0.2,0.4,0.2,0.6,0.4
						l0.1-0.1c4.8,4.4,7.9,11.5,7.9,19.5c0,0.2,0,0.4-0.1,0.5c5.5,3.2,9.2,9,9.2,15.8c0,10.1-8.2,18.3-18.3,18.3
						s-18.3-8.2-18.3-18.3c0-9.8,7.8-17.8,17.5-18.2c-0.4-4.1-2-7.5-4.3-9.7c-0.2-0.2-0.4-0.2-0.6-0.4l-0.1,0.1
						c-3.4-3.2-5.9-7.7-7.1-12.9h-17.4L109.9,218.3l71.5,71.5L282,189.1z M250,158.8c0-2.2-0.8-4.1-2-5.7c-2.8,7.1-5.9,8.7-5.9,8.7
						c-0.9,0.9-2.1,1.5-3.5,1.5c-2.7,0-4.9-2.3-4.9-5.2c0-1.7,0.8-3.2,2-4.1c1.1-1,2.1-2.5,2.8-4c-3.9,1-6.8,4.6-6.8,8.8
						c0,5.1,4.1,9.2,9.2,9.2C245.9,167.9,250,163.8,250,158.8z"/>
					<path id="XMLID_720_" class="st4" d="M207.5,224.4c1.7,1.7,1.7,4.6,0,6.3c-1.7,1.7-4.6,1.7-6.3,0l-32.3-32.3
						c-1.7-1.7-1.7-4.6,0-6.3c1.7-1.7,4.6-1.7,6.3,0L207.5,224.4z"/>
					<path id="XMLID_719_" class="st4" d="M189.2,242.7c1.7,1.7,1.7,4.6,0,6.3c-1.7,1.7-4.6,1.7-6.3,0l-32.3-32.3
						c-1.7-1.7-1.7-4.6,0-6.3c1.7-1.7,4.6-1.7,6.3,0L189.2,242.7z"/>
				</g>
			</g>
			<g id="XMLID_709_">
				<g id="XMLID_710_">
					<path id="XMLID_713_" class="st4" d="M286.2,185.7L286.2,185.7c0,1.5-0.7,2.8-1.8,3.6L180,293.7c-0.1,0.2-0.2,0.5-0.4,0.7
						c-0.9,0.9-2.1,1.3-3.3,1.3c-1.2,0-2.4-0.4-3.3-1.3c-0.2-0.2-0.3-0.4-0.4-0.7L95.9,217c-0.2-0.2-0.5-0.2-0.7-0.4
						c-0.9-0.9-1.3-2.1-1.3-3.3c0-1.2,0.4-2.4,1.3-3.3c0.2-0.2,0.4-0.3,0.7-0.4l104.3-104.3c0.8-1.1,2.1-1.8,3.6-1.8h0.1
						c0,0,0,0,0,0h18.4c0.6-6.9,3.4-12.9,7.6-16.9l0.1,0.1c0.9-0.9,2.1-1.5,3.5-1.5c2.7,0,4.9,2.3,4.9,5.2c0,1.7-0.8,3.2-2,4.1
						c-2.2,2-3.7,5.2-4.3,9H254c0,0,0,0,0,0h0.1c1.5,0,2.7,0.7,3.5,1.8l26.7,26.7c1.1,0.8,1.8,2.1,1.8,3.6v0.1c0,0,0,0,0,0V185.7
						C286.2,185.7,286.2,185.7,286.2,185.7z M277,184.1v-46.9l-24.6-24.6h-19.3c0.8,2,1.9,3.8,3.3,5c0.2,0.2,0.4,0.2,0.6,0.4
						l0.1-0.1c4.8,4.4,7.9,11.5,7.9,19.5c0,0.2,0,0.4-0.1,0.5c5.5,3.2,9.2,9,9.2,15.8c0,10.1-8.2,18.3-18.3,18.3
						s-18.3-8.2-18.3-18.3c0-9.8,7.8-17.8,17.5-18.2c-0.4-4.1-2-7.5-4.3-9.7c-0.2-0.2-0.4-0.2-0.6-0.4l-0.1,0.1
						c-3.4-3.2-5.9-7.7-7.1-12.9h-17.4L104.9,213.3l71.5,71.5L277,184.1z M245,153.8c0-2.2-0.8-4.1-2-5.7c-2.8,7.1-5.9,8.7-5.9,8.7
						c-0.9,0.9-2.1,1.5-3.5,1.5c-2.7,0-4.9-2.3-4.9-5.2c0-1.7,0.8-3.2,2-4.1c1.1-1,2.1-2.5,2.8-4c-3.9,1-6.8,4.6-6.8,8.8
						c0,5.1,4.1,9.2,9.2,9.2C240.9,162.9,245,158.8,245,153.8z"/>
					<path id="XMLID_712_" class="st4" d="M202.5,219.4c1.7,1.7,1.7,4.6,0,6.3c-1.7,1.7-4.6,1.7-6.3,0l-32.3-32.3
						c-1.7-1.7-1.7-4.6,0-6.3c1.7-1.7,4.6-1.7,6.3,0L202.5,219.4z"/>
					<path id="XMLID_711_" class="st4" d="M184.2,237.7c1.7,1.7,1.7,4.6,0,6.3c-1.7,1.7-4.6,1.7-6.3,0l-32.3-32.3
						c-1.7-1.7-1.7-4.6,0-6.3c1.7-1.7,4.6-1.7,6.3,0L184.2,237.7z"/>
				</g>
			</g>
			<g id="XMLID_701_">
				<g id="XMLID_702_">
					<path id="XMLID_705_" class="st4" d="M281.2,180.7L281.2,180.7c0,1.5-0.7,2.8-1.8,3.6L175,288.7c-0.1,0.2-0.2,0.5-0.4,0.7
						c-0.9,0.9-2.1,1.3-3.3,1.3c-1.2,0-2.4-0.4-3.3-1.3c-0.2-0.2-0.3-0.4-0.4-0.7L90.9,212c-0.2-0.2-0.5-0.2-0.7-0.4
						c-0.9-0.9-1.3-2.1-1.3-3.3c0-1.2,0.4-2.4,1.3-3.3c0.2-0.2,0.4-0.3,0.7-0.4l104.3-104.3c0.8-1.1,2.1-1.8,3.6-1.8h0.1
						c0,0,0,0,0,0h18.4c0.6-6.9,3.4-12.9,7.6-16.9l0.1,0.1c0.9-0.9,2.1-1.5,3.5-1.5c2.7,0,4.9,2.3,4.9,5.2c0,1.7-0.8,3.2-2,4.1
						c-2.2,2-3.7,5.2-4.3,9H249c0,0,0,0,0,0h0.1c1.5,0,2.7,0.7,3.5,1.8l26.7,26.7c1.1,0.8,1.8,2.1,1.8,3.6v0.1c0,0,0,0,0,0V180.7
						C281.2,180.7,281.2,180.7,281.2,180.7z M272,179.1v-46.9l-24.6-24.6h-19.3c0.8,2,1.9,3.8,3.3,5c0.2,0.2,0.4,0.2,0.6,0.4
						l0.1-0.1c4.8,4.4,7.9,11.5,7.9,19.5c0,0.2,0,0.4-0.1,0.5c5.5,3.2,9.2,9,9.2,15.8c0,10.1-8.2,18.3-18.3,18.3
						s-18.3-8.2-18.3-18.3c0-9.8,7.8-17.8,17.5-18.2c-0.4-4.1-2-7.5-4.3-9.7c-0.2-0.2-0.4-0.2-0.6-0.4l-0.1,0.1
						c-3.4-3.2-5.9-7.7-7.1-12.9h-17.4L99.9,208.3l71.5,71.5L272,179.1z M240,148.8c0-2.2-0.8-4.1-2-5.7c-2.8,7.1-5.9,8.7-5.9,8.7
						c-0.9,0.9-2.1,1.5-3.5,1.5c-2.7,0-4.9-2.3-4.9-5.2c0-1.7,0.8-3.2,2-4.1c1.1-1,2.1-2.5,2.8-4c-3.9,1-6.8,4.6-6.8,8.8
						c0,5.1,4.1,9.2,9.2,9.2C235.9,157.9,240,153.8,240,148.8z"/>
					<path id="XMLID_704_" class="st4" d="M197.5,214.4c1.7,1.7,1.7,4.6,0,6.3c-1.7,1.7-4.6,1.7-6.3,0l-32.3-32.3
						c-1.7-1.7-1.7-4.6,0-6.3c1.7-1.7,4.6-1.7,6.3,0L197.5,214.4z"/>
					<path id="XMLID_703_" class="st4" d="M179.2,232.7c1.7,1.7,1.7,4.6,0,6.3c-1.7,1.7-4.6,1.7-6.3,0l-32.3-32.3
						c-1.7-1.7-1.7-4.6,0-6.3c1.7-1.7,4.6-1.7,6.3,0L179.2,232.7z"/>
				</g>
			</g>
			<g id="XMLID_693_">
				<g id="XMLID_694_">
					<path id="XMLID_697_" class="st4" d="M276.2,175.7L276.2,175.7c0,1.5-0.7,2.8-1.8,3.6L170,283.7c-0.1,0.2-0.2,0.5-0.4,0.7
						c-0.9,0.9-2.1,1.3-3.3,1.3c-1.2,0-2.4-0.4-3.3-1.3c-0.2-0.2-0.3-0.4-0.4-0.7L85.9,207c-0.2-0.2-0.5-0.2-0.7-0.4
						c-0.9-0.9-1.3-2.1-1.3-3.3c0-1.2,0.4-2.4,1.3-3.3c0.2-0.2,0.4-0.3,0.7-0.4L190.2,95.2c0.8-1.1,2.1-1.8,3.6-1.8h0.1c0,0,0,0,0,0
						h18.4c0.6-6.9,3.4-12.9,7.6-16.9l0.1,0.1c0.9-0.9,2.1-1.5,3.5-1.5c2.7,0,4.9,2.3,4.9,5.2c0,1.7-0.8,3.2-2,4.1
						c-2.2,2-3.7,5.2-4.3,9H244c0,0,0,0,0,0h0.1c1.5,0,2.7,0.7,3.5,1.8l26.7,26.7c1.1,0.8,1.8,2.1,1.8,3.6v0.1c0,0,0,0,0,0V175.7
						C276.2,175.7,276.2,175.7,276.2,175.7z M267,174.1v-46.9l-24.6-24.6h-19.3c0.8,2,1.9,3.8,3.3,5c0.2,0.2,0.4,0.2,0.6,0.4
						l0.1-0.1c4.8,4.4,7.9,11.5,7.9,19.5c0,0.2,0,0.4-0.1,0.5c5.5,3.2,9.2,9,9.2,15.8c0,10.1-8.2,18.3-18.3,18.3
						s-18.3-8.2-18.3-18.3c0-9.8,7.8-17.8,17.5-18.2c-0.4-4.1-2-7.5-4.3-9.7c-0.2-0.2-0.4-0.2-0.6-0.4l-0.1,0.1
						c-3.4-3.2-5.9-7.7-7.1-12.9h-17.4L94.9,203.3l71.5,71.5L267,174.1z M235,143.8c0-2.2-0.8-4.1-2-5.7c-2.8,7.1-5.9,8.7-5.9,8.7
						c-0.9,0.9-2.1,1.5-3.5,1.5c-2.7,0-4.9-2.3-4.9-5.2c0-1.7,0.8-3.2,2-4.1c1.1-1,2.1-2.5,2.8-4c-3.9,1-6.8,4.6-6.8,8.8
						c0,5.1,4.1,9.2,9.2,9.2C230.9,152.9,235,148.8,235,143.8z"/>
					<path id="XMLID_696_" class="st4" d="M192.5,209.4c1.7,1.7,1.7,4.6,0,6.3c-1.7,1.7-4.6,1.7-6.3,0l-32.3-32.3
						c-1.7-1.7-1.7-4.6,0-6.3c1.7-1.7,4.6-1.7,6.3,0L192.5,209.4z"/>
					<path id="XMLID_695_" class="st4" d="M174.2,227.7c1.7,1.7,1.7,4.6,0,6.3c-1.7,1.7-4.6,1.7-6.3,0l-32.3-32.3
						c-1.7-1.7-1.7-4.6,0-6.3c1.7-1.7,4.6-1.7,6.3,0L174.2,227.7z"/>
				</g>
			</g>
			<g id="XMLID_685_">
				<g id="XMLID_686_">
					<path id="XMLID_689_" class="st4" d="M271.2,170.7L271.2,170.7c0,1.5-0.7,2.8-1.8,3.6L165,278.7c-0.1,0.2-0.2,0.5-0.4,0.7
						c-0.9,0.9-2.1,1.3-3.3,1.3c-1.2,0-2.4-0.4-3.3-1.3c-0.2-0.2-0.3-0.4-0.4-0.7L80.9,202c-0.2-0.2-0.5-0.2-0.7-0.4
						c-0.9-0.9-1.3-2.1-1.3-3.3c0-1.2,0.4-2.4,1.3-3.3c0.2-0.2,0.4-0.3,0.7-0.4L185.2,90.2c0.8-1.1,2.1-1.8,3.6-1.8h0.1c0,0,0,0,0,0
						h18.4c0.6-6.9,3.4-12.9,7.6-16.9l0.1,0.1c0.9-0.9,2.1-1.5,3.5-1.5c2.7,0,4.9,2.3,4.9,5.2c0,1.7-0.8,3.2-2,4.1
						c-2.2,2-3.7,5.2-4.3,9H239c0,0,0,0,0,0h0.1c1.5,0,2.7,0.7,3.5,1.8l26.7,26.7c1.1,0.8,1.8,2.1,1.8,3.6v0.1c0,0,0,0,0,0V170.7
						C271.2,170.7,271.2,170.7,271.2,170.7z M262,169.1v-46.9l-24.6-24.6h-19.3c0.8,2,1.9,3.8,3.3,5c0.2,0.2,0.4,0.2,0.6,0.4
						l0.1-0.1c4.8,4.4,7.9,11.5,7.9,19.5c0,0.2,0,0.4-0.1,0.5c5.5,3.2,9.2,9,9.2,15.8c0,10.1-8.2,18.3-18.3,18.3
						s-18.3-8.2-18.3-18.3c0-9.8,7.8-17.8,17.5-18.2c-0.4-4.1-2-7.5-4.3-9.7c-0.2-0.2-0.4-0.2-0.6-0.4l-0.1,0.1
						c-3.4-3.2-5.9-7.7-7.1-12.9h-17.4L89.9,198.3l71.5,71.5L262,169.1z M230,138.8c0-2.2-0.8-4.1-2-5.7c-2.8,7.1-5.9,8.7-5.9,8.7
						c-0.9,0.9-2.1,1.5-3.5,1.5c-2.7,0-4.9-2.3-4.9-5.2c0-1.7,0.8-3.2,2-4.1c1.1-1,2.1-2.5,2.8-4c-3.9,1-6.8,4.6-6.8,8.8
						c0,5.1,4.1,9.2,9.2,9.2C225.9,147.9,230,143.8,230,138.8z"/>
					<path id="XMLID_688_" class="st4" d="M187.5,204.4c1.7,1.7,1.7,4.6,0,6.3c-1.7,1.7-4.6,1.7-6.3,0l-32.3-32.3
						c-1.7-1.7-1.7-4.6,0-6.3c1.7-1.7,4.6-1.7,6.3,0L187.5,204.4z"/>
					<path id="XMLID_687_" class="st4" d="M169.2,222.7c1.7,1.7,1.7,4.6,0,6.3c-1.7,1.7-4.6,1.7-6.3,0l-32.3-32.3
						c-1.7-1.7-1.7-4.6,0-6.3c1.7-1.7,4.6-1.7,6.3,0L169.2,222.7z"/>
				</g>
			</g>
			<g id="XMLID_677_">
				<g id="XMLID_678_">
					<path id="XMLID_681_" class="st4" d="M266.2,165.7L266.2,165.7c0,1.5-0.7,2.8-1.8,3.6L160,273.7c-0.1,0.2-0.2,0.5-0.4,0.7
						c-0.9,0.9-2.1,1.3-3.3,1.3c-1.2,0-2.4-0.4-3.3-1.3c-0.2-0.2-0.3-0.4-0.4-0.7L75.9,197c-0.2-0.2-0.5-0.2-0.7-0.4
						c-0.9-0.9-1.3-2.1-1.3-3.3c0-1.2,0.4-2.4,1.3-3.3c0.2-0.2,0.4-0.3,0.7-0.4L180.2,85.2c0.8-1.1,2.1-1.8,3.6-1.8h0.1c0,0,0,0,0,0
						h18.4c0.6-6.9,3.4-12.9,7.6-16.9l0.1,0.1c0.9-0.9,2.1-1.5,3.5-1.5c2.7,0,4.9,2.3,4.9,5.2c0,1.7-0.8,3.2-2,4.1
						c-2.2,2-3.7,5.2-4.3,9H234c0,0,0,0,0,0h0.1c1.5,0,2.7,0.7,3.5,1.8l26.7,26.7c1.1,0.8,1.8,2.1,1.8,3.6v0.1c0,0,0,0,0,0V165.7
						C266.2,165.7,266.2,165.7,266.2,165.7z M257,164.1v-46.9l-24.6-24.6h-19.3c0.8,2,1.9,3.8,3.3,5c0.2,0.2,0.4,0.2,0.6,0.4
						l0.1-0.1c4.8,4.4,7.9,11.5,7.9,19.5c0,0.2,0,0.4-0.1,0.5c5.5,3.2,9.2,9,9.2,15.8c0,10.1-8.2,18.3-18.3,18.3
						s-18.3-8.2-18.3-18.3c0-9.8,7.8-17.8,17.5-18.2c-0.4-4.1-2-7.5-4.3-9.7c-0.2-0.2-0.4-0.2-0.6-0.4l-0.1,0.1
						c-3.4-3.2-5.9-7.7-7.1-12.9h-17.4L84.9,193.3l71.5,71.5L257,164.1z M225,133.8c0-2.2-0.8-4.1-2-5.7c-2.8,7.1-5.9,8.7-5.9,8.7
						c-0.9,0.9-2.1,1.5-3.5,1.5c-2.7,0-4.9-2.3-4.9-5.2c0-1.7,0.8-3.2,2-4.1c1.1-1,2.1-2.5,2.8-4c-3.9,1-6.8,4.6-6.8,8.8
						c0,5.1,4.1,9.2,9.2,9.2C220.9,142.9,225,138.8,225,133.8z"/>
					<path id="XMLID_680_" class="st4" d="M182.5,199.4c1.7,1.7,1.7,4.6,0,6.3c-1.7,1.7-4.6,1.7-6.3,0l-32.3-32.3
						c-1.7-1.7-1.7-4.6,0-6.3c1.7-1.7,4.6-1.7,6.3,0L182.5,199.4z"/>
					<path id="XMLID_679_" class="st4" d="M164.2,217.7c1.7,1.7,1.7,4.6,0,6.3c-1.7,1.7-4.6,1.7-6.3,0l-32.3-32.3
						c-1.7-1.7-1.7-4.6,0-6.3c1.7-1.7,4.6-1.7,6.3,0L164.2,217.7z"/>
				</g>
			</g>
			<g id="XMLID_669_">
				<g id="XMLID_670_">
					<path id="XMLID_673_" class="st4" d="M261.2,160.7L261.2,160.7c0,1.5-0.7,2.8-1.8,3.6L155,268.7c-0.1,0.2-0.2,0.5-0.4,0.7
						c-0.9,0.9-2.1,1.3-3.3,1.3c-1.2,0-2.4-0.4-3.3-1.3c-0.2-0.2-0.3-0.4-0.4-0.7L70.9,192c-0.2-0.2-0.5-0.2-0.7-0.4
						c-0.9-0.9-1.3-2.1-1.3-3.3c0-1.2,0.4-2.4,1.3-3.3c0.2-0.2,0.4-0.3,0.7-0.4L175.2,80.2c0.8-1.1,2.1-1.8,3.6-1.8h0.1c0,0,0,0,0,0
						h18.4c0.6-6.9,3.4-12.9,7.6-16.9l0.1,0.1c0.9-0.9,2.1-1.5,3.5-1.5c2.7,0,4.9,2.3,4.9,5.2c0,1.7-0.8,3.2-2,4.1
						c-2.2,2-3.7,5.2-4.3,9H229c0,0,0,0,0,0h0.1c1.5,0,2.7,0.7,3.5,1.8l26.7,26.7c1.1,0.8,1.8,2.1,1.8,3.6v0.1c0,0,0,0,0,0V160.7
						C261.2,160.7,261.2,160.7,261.2,160.7z M252,159.1v-46.9l-24.6-24.6h-19.3c0.8,2,1.9,3.8,3.3,5c0.2,0.2,0.4,0.2,0.6,0.4
						l0.1-0.1c4.8,4.4,7.9,11.5,7.9,19.5c0,0.2,0,0.4-0.1,0.5c5.5,3.2,9.2,9,9.2,15.8c0,10.1-8.2,18.3-18.3,18.3
						s-18.3-8.2-18.3-18.3c0-9.8,7.8-17.8,17.5-18.2c-0.4-4.1-2-7.5-4.3-9.7c-0.2-0.2-0.4-0.2-0.6-0.4l-0.1,0.1
						c-3.4-3.2-5.9-7.7-7.1-12.9h-17.4L79.9,188.3l71.5,71.5L252,159.1z M220,128.8c0-2.2-0.8-4.1-2-5.7c-2.8,7.1-5.9,8.7-5.9,8.7
						c-0.9,0.9-2.1,1.5-3.5,1.5c-2.7,0-4.9-2.3-4.9-5.2c0-1.7,0.8-3.2,2-4.1c1.1-1,2.1-2.5,2.8-4c-3.9,1-6.8,4.6-6.8,8.8
						c0,5.1,4.1,9.2,9.2,9.2C215.9,137.9,220,133.8,220,128.8z"/>
					<path id="XMLID_672_" class="st4" d="M177.5,194.4c1.7,1.7,1.7,4.6,0,6.3c-1.7,1.7-4.6,1.7-6.3,0l-32.3-32.3
						c-1.7-1.7-1.7-4.6,0-6.3c1.7-1.7,4.6-1.7,6.3,0L177.5,194.4z"/>
					<path id="XMLID_671_" class="st4" d="M159.2,212.7c1.7,1.7,1.7,4.6,0,6.3c-1.7,1.7-4.6,1.7-6.3,0l-32.3-32.3
						c-1.7-1.7-1.7-4.6,0-6.3c1.7-1.7,4.6-1.7,6.3,0L159.2,212.7z"/>
				</g>
			</g>
			<g id="XMLID_661_">
				<g id="XMLID_662_">
					<path id="XMLID_665_" class="st4" d="M256.2,155.7L256.2,155.7c0,1.5-0.7,2.8-1.8,3.6L150,263.7c-0.1,0.2-0.2,0.5-0.4,0.7
						c-0.9,0.9-2.1,1.3-3.3,1.3c-1.2,0-2.4-0.4-3.3-1.3c-0.2-0.2-0.3-0.4-0.4-0.7L65.9,187c-0.2-0.2-0.5-0.2-0.7-0.4
						c-0.9-0.9-1.3-2.1-1.3-3.3c0-1.2,0.4-2.4,1.3-3.3c0.2-0.2,0.4-0.3,0.7-0.4L170.2,75.2c0.8-1.1,2.1-1.8,3.6-1.8h0.1c0,0,0,0,0,0
						h18.4c0.6-6.9,3.4-12.9,7.6-16.9l0.1,0.1c0.9-0.9,2.1-1.5,3.5-1.5c2.7,0,4.9,2.3,4.9,5.2c0,1.7-0.8,3.2-2,4.1
						c-2.2,2-3.7,5.2-4.3,9H224c0,0,0,0,0,0h0.1c1.5,0,2.7,0.7,3.5,1.8l26.7,26.7c1.1,0.8,1.8,2.1,1.8,3.6v0.1c0,0,0,0,0,0V155.7
						C256.2,155.7,256.2,155.7,256.2,155.7z M247,154.1v-46.9l-24.6-24.6h-19.3c0.8,2,1.9,3.8,3.3,5c0.2,0.2,0.4,0.2,0.6,0.4
						l0.1-0.1c4.8,4.4,7.9,11.5,7.9,19.5c0,0.2,0,0.4-0.1,0.5c5.5,3.2,9.2,9,9.2,15.8c0,10.1-8.2,18.3-18.3,18.3
						s-18.3-8.2-18.3-18.3c0-9.8,7.8-17.8,17.5-18.2c-0.4-4.1-2-7.5-4.3-9.7c-0.2-0.2-0.4-0.2-0.6-0.4l-0.1,0.1
						c-3.4-3.2-5.9-7.7-7.1-12.9h-17.4L74.9,183.3l71.5,71.5L247,154.1z M215,123.8c0-2.2-0.8-4.1-2-5.7c-2.8,7.1-5.9,8.7-5.9,8.7
						c-0.9,0.9-2.1,1.5-3.5,1.5c-2.7,0-4.9-2.3-4.9-5.2c0-1.7,0.8-3.2,2-4.1c1.1-1,2.1-2.5,2.8-4c-3.9,1-6.8,4.6-6.8,8.8
						c0,5.1,4.1,9.2,9.2,9.2C210.9,132.9,215,128.8,215,123.8z"/>
					<path id="XMLID_664_" class="st4" d="M172.5,189.4c1.7,1.7,1.7,4.6,0,6.3c-1.7,1.7-4.6,1.7-6.3,0l-32.3-32.3
						c-1.7-1.7-1.7-4.6,0-6.3c1.7-1.7,4.6-1.7,6.3,0L172.5,189.4z"/>
					<path id="XMLID_663_" class="st4" d="M154.2,207.7c1.7,1.7,1.7,4.6,0,6.3c-1.7,1.7-4.6,1.7-6.3,0l-32.3-32.3
						c-1.7-1.7-1.7-4.6,0-6.3c1.7-1.7,4.6-1.7,6.3,0L154.2,207.7z"/>
				</g>
			</g>
			<g id="XMLID_653_">
				<g id="XMLID_654_">
					<path id="XMLID_657_" class="st4" d="M251.2,150.7L251.2,150.7c0,1.5-0.7,2.8-1.8,3.6L145,258.7c-0.1,0.2-0.2,0.5-0.4,0.7
						c-0.9,0.9-2.1,1.3-3.3,1.3c-1.2,0-2.4-0.4-3.3-1.3c-0.2-0.2-0.3-0.4-0.4-0.7L60.9,182c-0.2-0.2-0.5-0.2-0.7-0.4
						c-0.9-0.9-1.3-2.1-1.3-3.3c0-1.2,0.4-2.4,1.3-3.3c0.2-0.2,0.4-0.3,0.7-0.4L165.2,70.2c0.8-1.1,2.1-1.8,3.6-1.8h0.1c0,0,0,0,0,0
						h18.4c0.6-6.9,3.4-12.9,7.6-16.9l0.1,0.1c0.9-0.9,2.1-1.5,3.5-1.5c2.7,0,4.9,2.3,4.9,5.2c0,1.7-0.8,3.2-2,4.1
						c-2.2,2-3.7,5.2-4.3,9H219c0,0,0,0,0,0h0.1c1.5,0,2.7,0.7,3.5,1.8l26.7,26.7c1.1,0.8,1.8,2.1,1.8,3.6v0.1c0,0,0,0,0,0V150.7
						C251.2,150.7,251.2,150.7,251.2,150.7z M242,149.1v-46.9l-24.6-24.6h-19.3c0.8,2,1.9,3.8,3.3,5c0.2,0.2,0.4,0.2,0.6,0.4
						l0.1-0.1c4.8,4.4,7.9,11.5,7.9,19.5c0,0.2,0,0.4-0.1,0.5c5.5,3.2,9.2,9,9.2,15.8c0,10.1-8.2,18.3-18.3,18.3
						s-18.3-8.2-18.3-18.3c0-9.8,7.8-17.8,17.5-18.2c-0.4-4.1-2-7.5-4.3-9.7c-0.2-0.2-0.4-0.2-0.6-0.4l-0.1,0.1
						c-3.4-3.2-5.9-7.7-7.1-12.9h-17.4L69.9,178.3l71.5,71.5L242,149.1z M210,118.8c0-2.2-0.8-4.1-2-5.7c-2.8,7.1-5.9,8.7-5.9,8.7
						c-0.9,0.9-2.1,1.5-3.5,1.5c-2.7,0-4.9-2.3-4.9-5.2c0-1.7,0.8-3.2,2-4.1c1.1-1,2.1-2.5,2.8-4c-3.9,1-6.8,4.6-6.8,8.8
						c0,5.1,4.1,9.2,9.2,9.2C205.9,127.9,210,123.8,210,118.8z"/>
					<path id="XMLID_656_" class="st4" d="M167.5,184.4c1.7,1.7,1.7,4.6,0,6.3c-1.7,1.7-4.6,1.7-6.3,0l-32.3-32.3
						c-1.7-1.7-1.7-4.6,0-6.3c1.7-1.7,4.6-1.7,6.3,0L167.5,184.4z"/>
					<path id="XMLID_655_" class="st4" d="M149.2,202.7c1.7,1.7,1.7,4.6,0,6.3c-1.7,1.7-4.6,1.7-6.3,0l-32.3-32.3
						c-1.7-1.7-1.7-4.6,0-6.3c1.7-1.7,4.6-1.7,6.3,0L149.2,202.7z"/>
				</g>
			</g>
			<g id="XMLID_645_">
				<g id="XMLID_646_">
					<path id="XMLID_649_" class="st4" d="M246.2,145.7L246.2,145.7c0,1.5-0.7,2.8-1.8,3.6L140,253.7c-0.1,0.2-0.2,0.5-0.4,0.7
						c-0.9,0.9-2.1,1.3-3.3,1.3c-1.2,0-2.4-0.4-3.3-1.3c-0.2-0.2-0.3-0.4-0.4-0.7L55.9,177c-0.2-0.2-0.5-0.2-0.7-0.4
						c-0.9-0.9-1.3-2.1-1.3-3.3c0-1.2,0.4-2.4,1.3-3.3c0.2-0.2,0.4-0.3,0.7-0.4L160.2,65.2c0.8-1.1,2.1-1.8,3.6-1.8h0.1c0,0,0,0,0,0
						h18.4c0.6-6.9,3.4-12.9,7.6-16.9l0.1,0.1c0.9-0.9,2.1-1.5,3.5-1.5c2.7,0,4.9,2.3,4.9,5.2c0,1.7-0.8,3.2-2,4.1
						c-2.2,2-3.7,5.2-4.3,9H214c0,0,0,0,0,0h0.1c1.5,0,2.7,0.7,3.5,1.8l26.7,26.7c1.1,0.8,1.8,2.1,1.8,3.6v0.1c0,0,0,0,0,0V145.7
						C246.2,145.7,246.2,145.7,246.2,145.7z M237,144.1V97.2l-24.6-24.6h-19.3c0.8,2,1.9,3.8,3.3,5c0.2,0.2,0.4,0.2,0.6,0.4l0.1-0.1
						c4.8,4.4,7.9,11.5,7.9,19.5c0,0.2,0,0.4-0.1,0.5c5.5,3.2,9.2,9,9.2,15.8c0,10.1-8.2,18.3-18.3,18.3s-18.3-8.2-18.3-18.3
						c0-9.8,7.8-17.8,17.5-18.2c-0.4-4.1-2-7.5-4.3-9.7c-0.2-0.2-0.4-0.2-0.6-0.4l-0.1,0.1c-3.4-3.2-5.9-7.7-7.1-12.9h-17.4
						L64.9,173.3l71.5,71.5L237,144.1z M205,113.8c0-2.2-0.8-4.1-2-5.7c-2.8,7.1-5.9,8.7-5.9,8.7c-0.9,0.9-2.1,1.5-3.5,1.5
						c-2.7,0-4.9-2.3-4.9-5.2c0-1.7,0.8-3.2,2-4.1c1.1-1,2.1-2.5,2.8-4c-3.9,1-6.8,4.6-6.8,8.8c0,5.1,4.1,9.2,9.2,9.2
						C200.9,122.9,205,118.8,205,113.8z"/>
					<path id="XMLID_648_" class="st4" d="M162.5,179.4c1.7,1.7,1.7,4.6,0,6.3c-1.7,1.7-4.6,1.7-6.3,0l-32.3-32.3
						c-1.7-1.7-1.7-4.6,0-6.3c1.7-1.7,4.6-1.7,6.3,0L162.5,179.4z"/>
					<path id="XMLID_647_" class="st4" d="M144.2,197.7c1.7,1.7,1.7,4.6,0,6.3c-1.7,1.7-4.6,1.7-6.3,0l-32.3-32.3
						c-1.7-1.7-1.7-4.6,0-6.3c1.7-1.7,4.6-1.7,6.3,0L144.2,197.7z"/>
				</g>
			</g>
			<g id="XMLID_637_">
				<g id="XMLID_638_">
					<path id="XMLID_641_" class="st4" d="M241.2,140.7L241.2,140.7c0,1.5-0.7,2.8-1.8,3.6L135,248.7c-0.1,0.2-0.2,0.5-0.4,0.7
						c-0.9,0.9-2.1,1.3-3.3,1.3c-1.2,0-2.4-0.4-3.3-1.3c-0.2-0.2-0.3-0.4-0.4-0.7L50.9,172c-0.2-0.2-0.5-0.2-0.7-0.4
						c-0.9-0.9-1.3-2.1-1.3-3.3c0-1.2,0.4-2.4,1.3-3.3c0.2-0.2,0.4-0.3,0.7-0.4L155.2,60.2c0.8-1.1,2.1-1.8,3.6-1.8h0.1c0,0,0,0,0,0
						h18.4c0.6-6.9,3.4-12.9,7.6-16.9l0.1,0.1c0.9-0.9,2.1-1.5,3.5-1.5c2.7,0,4.9,2.3,4.9,5.2c0,1.7-0.8,3.2-2,4.1
						c-2.2,2-3.7,5.2-4.3,9H209c0,0,0,0,0,0h0.1c1.5,0,2.7,0.7,3.5,1.8l26.7,26.7c1.1,0.8,1.8,2.1,1.8,3.6v0.1c0,0,0,0,0,0V140.7
						C241.2,140.7,241.2,140.7,241.2,140.7z M232,139.1V92.2l-24.6-24.6h-19.3c0.8,2,1.9,3.8,3.3,5c0.2,0.2,0.4,0.2,0.6,0.4l0.1-0.1
						c4.8,4.4,7.9,11.5,7.9,19.5c0,0.2,0,0.4-0.1,0.5c5.5,3.2,9.2,9,9.2,15.8c0,10.1-8.2,18.3-18.3,18.3s-18.3-8.2-18.3-18.3
						c0-9.8,7.8-17.8,17.5-18.2c-0.4-4.1-2-7.5-4.3-9.7c-0.2-0.2-0.4-0.2-0.6-0.4l-0.1,0.1c-3.4-3.2-5.9-7.7-7.1-12.9h-17.4
						L59.9,168.3l71.5,71.5L232,139.1z M200,108.8c0-2.2-0.8-4.1-2-5.7c-2.8,7.1-5.9,8.7-5.9,8.7c-0.9,0.9-2.1,1.5-3.5,1.5
						c-2.7,0-4.9-2.3-4.9-5.2c0-1.7,0.8-3.2,2-4.1c1.1-1,2.1-2.5,2.8-4c-3.9,1-6.8,4.6-6.8,8.8c0,5.1,4.1,9.2,9.2,9.2
						C195.9,117.9,200,113.8,200,108.8z"/>
					<path id="XMLID_640_" class="st4" d="M157.5,174.4c1.7,1.7,1.7,4.6,0,6.3c-1.7,1.7-4.6,1.7-6.3,0l-32.3-32.3
						c-1.7-1.7-1.7-4.6,0-6.3c1.7-1.7,4.6-1.7,6.3,0L157.5,174.4z"/>
					<path id="XMLID_639_" class="st4" d="M139.2,192.7c1.7,1.7,1.7,4.6,0,6.3c-1.7,1.7-4.6,1.7-6.3,0l-32.3-32.3
						c-1.7-1.7-1.7-4.6,0-6.3c1.7-1.7,4.6-1.7,6.3,0L139.2,192.7z"/>
				</g>
			</g>
			<g id="XMLID_629_">
				<g id="XMLID_630_">
					<path id="XMLID_633_" class="st4" d="M236.2,135.7L236.2,135.7c0,1.5-0.7,2.8-1.8,3.6L130,243.7c-0.1,0.2-0.2,0.5-0.4,0.7
						c-0.9,0.9-2.1,1.3-3.3,1.3c-1.2,0-2.4-0.4-3.3-1.3c-0.2-0.2-0.3-0.4-0.4-0.7L45.9,167c-0.2-0.2-0.5-0.2-0.7-0.4
						c-0.9-0.9-1.3-2.1-1.3-3.3c0-1.2,0.4-2.4,1.3-3.3c0.2-0.2,0.4-0.3,0.7-0.4L150.2,55.2c0.8-1.1,2.1-1.8,3.6-1.8h0.1c0,0,0,0,0,0
						h18.4c0.6-6.9,3.4-12.9,7.6-16.9l0.1,0.1c0.9-0.9,2.1-1.5,3.5-1.5c2.7,0,4.9,2.3,4.9,5.2c0,1.7-0.8,3.2-2,4.1
						c-2.2,2-3.7,5.2-4.3,9H204c0,0,0,0,0,0h0.1c1.5,0,2.7,0.7,3.5,1.8l26.7,26.7c1.1,0.8,1.8,2.1,1.8,3.6v0.1c0,0,0,0,0,0V135.7
						C236.2,135.7,236.2,135.7,236.2,135.7z M227,134.1V87.2l-24.6-24.6h-19.3c0.8,2,1.9,3.8,3.3,5c0.2,0.2,0.4,0.2,0.6,0.4l0.1-0.1
						c4.8,4.4,7.9,11.5,7.9,19.5c0,0.2,0,0.4-0.1,0.5c5.5,3.2,9.2,9,9.2,15.8c0,10.1-8.2,18.3-18.3,18.3s-18.3-8.2-18.3-18.3
						c0-9.8,7.8-17.8,17.5-18.2c-0.4-4.1-2-7.5-4.3-9.7c-0.2-0.2-0.4-0.2-0.6-0.4l-0.1,0.1c-3.4-3.2-5.9-7.7-7.1-12.9h-17.4
						L54.9,163.3l71.5,71.5L227,134.1z M195,103.8c0-2.2-0.8-4.1-2-5.7c-2.8,7.1-5.9,8.7-5.9,8.7c-0.9,0.9-2.1,1.5-3.5,1.5
						c-2.7,0-4.9-2.3-4.9-5.2c0-1.7,0.8-3.2,2-4.1c1.1-1,2.1-2.5,2.8-4c-3.9,1-6.8,4.6-6.8,8.8c0,5.1,4.1,9.2,9.2,9.2
						C190.9,112.9,195,108.8,195,103.8z"/>
					<path id="XMLID_632_" class="st4" d="M152.5,169.4c1.7,1.7,1.7,4.6,0,6.3c-1.7,1.7-4.6,1.7-6.3,0l-32.3-32.3
						c-1.7-1.7-1.7-4.6,0-6.3c1.7-1.7,4.6-1.7,6.3,0L152.5,169.4z"/>
					<path id="XMLID_631_" class="st4" d="M134.2,187.7c1.7,1.7,1.7,4.6,0,6.3c-1.7,1.7-4.6,1.7-6.3,0l-32.3-32.3
						c-1.7-1.7-1.7-4.6,0-6.3c1.7-1.7,4.6-1.7,6.3,0L134.2,187.7z"/>
				</g>
			</g>
			<g id="XMLID_621_">
				<g id="XMLID_622_">
					<path id="XMLID_625_" class="st4" d="M231.2,130.7L231.2,130.7c0,1.5-0.7,2.8-1.8,3.6L125,238.7c-0.1,0.2-0.2,0.5-0.4,0.7
						c-0.9,0.9-2.1,1.3-3.3,1.3c-1.2,0-2.4-0.4-3.3-1.3c-0.2-0.2-0.3-0.4-0.4-0.7L40.9,162c-0.2-0.2-0.5-0.2-0.7-0.4
						c-0.9-0.9-1.3-2.1-1.3-3.3c0-1.2,0.4-2.4,1.3-3.3c0.2-0.2,0.4-0.3,0.7-0.4L145.2,50.2c0.8-1.1,2.1-1.8,3.6-1.8h0.1c0,0,0,0,0,0
						h18.4c0.6-6.9,3.4-12.9,7.6-16.9l0.1,0.1c0.9-0.9,2.1-1.5,3.5-1.5c2.7,0,4.9,2.3,4.9,5.2c0,1.7-0.8,3.2-2,4.1
						c-2.2,2-3.7,5.2-4.3,9H199c0,0,0,0,0,0h0.1c1.5,0,2.7,0.7,3.5,1.8l26.7,26.7c1.1,0.8,1.8,2.1,1.8,3.6v0.1c0,0,0,0,0,0V130.7
						C231.2,130.7,231.2,130.7,231.2,130.7z M222,129.1V82.2l-24.6-24.6h-19.3c0.8,2,1.9,3.8,3.3,5c0.2,0.2,0.4,0.2,0.6,0.4l0.1-0.1
						c4.8,4.4,7.9,11.5,7.9,19.5c0,0.2,0,0.4-0.1,0.5c5.5,3.2,9.2,9,9.2,15.8c0,10.1-8.2,18.3-18.3,18.3s-18.3-8.2-18.3-18.3
						c0-9.8,7.8-17.8,17.5-18.2c-0.4-4.1-2-7.5-4.3-9.7c-0.2-0.2-0.4-0.2-0.6-0.4l-0.1,0.1c-3.4-3.2-5.9-7.7-7.1-12.9h-17.4
						L49.9,158.3l71.5,71.5L222,129.1z M190,98.8c0-2.2-0.8-4.1-2-5.7c-2.8,7.1-5.9,8.7-5.9,8.7c-0.9,0.9-2.1,1.5-3.5,1.5
						c-2.7,0-4.9-2.3-4.9-5.2c0-1.7,0.8-3.2,2-4.1c1.1-1,2.1-2.5,2.8-4c-3.9,1-6.8,4.6-6.8,8.8c0,5.1,4.1,9.2,9.2,9.2
						C185.9,107.9,190,103.8,190,98.8z"/>
					<path id="XMLID_624_" class="st4" d="M147.5,164.4c1.7,1.7,1.7,4.6,0,6.3c-1.7,1.7-4.6,1.7-6.3,0l-32.3-32.3
						c-1.7-1.7-1.7-4.6,0-6.3c1.7-1.7,4.6-1.7,6.3,0L147.5,164.4z"/>
					<path id="XMLID_623_" class="st4" d="M129.2,182.7c1.7,1.7,1.7,4.6,0,6.3c-1.7,1.7-4.6,1.7-6.3,0l-32.3-32.3
						c-1.7-1.7-1.7-4.6,0-6.3c1.7-1.7,4.6-1.7,6.3,0L129.2,182.7z"/>
				</g>
			</g>
			<g id="XMLID_613_">
				<g id="XMLID_614_">
					<path id="XMLID_617_" class="st4" d="M226.2,125.7L226.2,125.7c0,1.5-0.7,2.8-1.8,3.6L120,233.7c-0.1,0.2-0.2,0.5-0.4,0.7
						c-0.9,0.9-2.1,1.3-3.3,1.3c-1.2,0-2.4-0.4-3.3-1.3c-0.2-0.2-0.3-0.4-0.4-0.7L35.9,157c-0.2-0.2-0.5-0.2-0.7-0.4
						c-0.9-0.9-1.3-2.1-1.3-3.3c0-1.2,0.4-2.4,1.3-3.3c0.2-0.2,0.4-0.3,0.7-0.4L140.2,45.2c0.8-1.1,2.1-1.8,3.6-1.8h0.1c0,0,0,0,0,0
						h18.4c0.6-6.9,3.4-12.9,7.6-16.9l0.1,0.1c0.9-0.9,2.1-1.5,3.5-1.5c2.7,0,4.9,2.3,4.9,5.2c0,1.7-0.8,3.2-2,4.1
						c-2.2,2-3.7,5.2-4.3,9H194c0,0,0,0,0,0h0.1c1.5,0,2.7,0.7,3.5,1.8l26.7,26.7c1.1,0.8,1.8,2.1,1.8,3.6v0.1c0,0,0,0,0,0V125.7
						C226.2,125.7,226.2,125.7,226.2,125.7z M217,124.1V77.2l-24.6-24.6h-19.3c0.8,2,1.9,3.8,3.3,5c0.2,0.2,0.4,0.2,0.6,0.4l0.1-0.1
						c4.8,4.4,7.9,11.5,7.9,19.5c0,0.2,0,0.4-0.1,0.5c5.5,3.2,9.2,9,9.2,15.8c0,10.1-8.2,18.3-18.3,18.3s-18.3-8.2-18.3-18.3
						c0-9.8,7.8-17.8,17.5-18.2c-0.4-4.1-2-7.5-4.3-9.7c-0.2-0.2-0.4-0.2-0.6-0.4l-0.1,0.1c-3.4-3.2-5.9-7.7-7.1-12.9h-17.4
						L44.9,153.3l71.5,71.5L217,124.1z M185,93.8c0-2.2-0.8-4.1-2-5.7c-2.8,7.1-5.9,8.7-5.9,8.7c-0.9,0.9-2.1,1.5-3.5,1.5
						c-2.7,0-4.9-2.3-4.9-5.2c0-1.7,0.8-3.2,2-4.1c1.1-1,2.1-2.5,2.8-4c-3.9,1-6.8,4.6-6.8,8.8c0,5.1,4.1,9.2,9.2,9.2
						C180.9,102.9,185,98.8,185,93.8z"/>
					<path id="XMLID_616_" class="st4" d="M142.5,159.4c1.7,1.7,1.7,4.6,0,6.3c-1.7,1.7-4.6,1.7-6.3,0l-32.3-32.3
						c-1.7-1.7-1.7-4.6,0-6.3c1.7-1.7,4.6-1.7,6.3,0L142.5,159.4z"/>
					<path id="XMLID_615_" class="st4" d="M124.2,177.7c1.7,1.7,1.7,4.6,0,6.3c-1.7,1.7-4.6,1.7-6.3,0l-32.3-32.3
						c-1.7-1.7-1.7-4.6,0-6.3c1.7-1.7,4.6-1.7,6.3,0L124.2,177.7z"/>
				</g>
			</g>
			<g id="XMLID_605_">
				<g id="XMLID_606_">
					<path id="XMLID_609_" class="st4" d="M221.2,120.7L221.2,120.7c0,1.5-0.7,2.8-1.8,3.6L115,228.7c-0.1,0.2-0.2,0.5-0.4,0.7
						c-0.9,0.9-2.1,1.3-3.3,1.3c-1.2,0-2.4-0.4-3.3-1.3c-0.2-0.2-0.3-0.4-0.4-0.7L30.9,152c-0.2-0.2-0.5-0.2-0.7-0.4
						c-0.9-0.9-1.3-2.1-1.3-3.3c0-1.2,0.4-2.4,1.3-3.3c0.2-0.2,0.4-0.3,0.7-0.4L135.2,40.2c0.8-1.1,2.1-1.8,3.6-1.8h0.1c0,0,0,0,0,0
						h18.4c0.6-6.9,3.4-12.9,7.6-16.9l0.1,0.1c0.9-0.9,2.1-1.5,3.5-1.5c2.7,0,4.9,2.3,4.9,5.2c0,1.7-0.8,3.2-2,4.1
						c-2.2,2-3.7,5.2-4.3,9H189c0,0,0,0,0,0h0.1c1.5,0,2.7,0.7,3.5,1.8l26.7,26.7c1.1,0.8,1.8,2.1,1.8,3.6v0.1c0,0,0,0,0,0V120.7
						C221.2,120.7,221.2,120.7,221.2,120.7z M212,119.1V72.2l-24.6-24.6h-19.3c0.8,2,1.9,3.8,3.3,5c0.2,0.2,0.4,0.2,0.6,0.4l0.1-0.1
						c4.8,4.4,7.9,11.5,7.9,19.5c0,0.2,0,0.4-0.1,0.5c5.5,3.2,9.2,9,9.2,15.8c0,10.1-8.2,18.3-18.3,18.3s-18.3-8.2-18.3-18.3
						c0-9.8,7.8-17.8,17.5-18.2c-0.4-4.1-2-7.5-4.3-9.7c-0.2-0.2-0.4-0.2-0.6-0.4l-0.1,0.1c-3.4-3.2-5.9-7.7-7.1-12.9h-17.4
						L39.9,148.3l71.5,71.5L212,119.1z M180,88.8c0-2.2-0.8-4.1-2-5.7c-2.8,7.1-5.9,8.7-5.9,8.7c-0.9,0.9-2.1,1.5-3.5,1.5
						c-2.7,0-4.9-2.3-4.9-5.2c0-1.7,0.8-3.2,2-4.1c1.1-1,2.1-2.5,2.8-4c-3.9,1-6.8,4.6-6.8,8.8c0,5.1,4.1,9.2,9.2,9.2
						C175.9,97.9,180,93.8,180,88.8z"/>
					<path id="XMLID_608_" class="st4" d="M137.5,154.4c1.7,1.7,1.7,4.6,0,6.3c-1.7,1.7-4.6,1.7-6.3,0l-32.3-32.3
						c-1.7-1.7-1.7-4.6,0-6.3c1.7-1.7,4.6-1.7,6.3,0L137.5,154.4z"/>
					<path id="XMLID_607_" class="st4" d="M119.2,172.7c1.7,1.7,1.7,4.6,0,6.3c-1.7,1.7-4.6,1.7-6.3,0l-32.3-32.3
						c-1.7-1.7-1.7-4.6,0-6.3c1.7-1.7,4.6-1.7,6.3,0L119.2,172.7z"/>
				</g>
			</g>
			<g id="XMLID_597_">
				<g id="XMLID_598_">
					<path id="XMLID_601_" class="st4" d="M216.2,115.7L216.2,115.7c0,1.5-0.7,2.8-1.8,3.6L110,223.7c-0.1,0.2-0.2,0.5-0.4,0.7
						c-0.9,0.9-2.1,1.3-3.3,1.3c-1.2,0-2.4-0.4-3.3-1.3c-0.2-0.2-0.3-0.4-0.4-0.7L25.9,147c-0.2-0.2-0.5-0.2-0.7-0.4
						c-0.9-0.9-1.3-2.1-1.3-3.3c0-1.2,0.4-2.4,1.3-3.3c0.2-0.2,0.4-0.3,0.7-0.4L130.2,35.2c0.8-1.1,2.1-1.8,3.6-1.8h0.1c0,0,0,0,0,0
						h18.4c0.6-6.9,3.4-12.9,7.6-16.9l0.1,0.1c0.9-0.9,2.1-1.5,3.5-1.5c2.7,0,4.9,2.3,4.9,5.2c0,1.7-0.8,3.2-2,4.1
						c-2.2,2-3.7,5.2-4.3,9H184c0,0,0,0,0,0h0.1c1.5,0,2.7,0.7,3.5,1.8l26.7,26.7c1.1,0.8,1.8,2.1,1.8,3.6v0.1c0,0,0,0,0,0V115.7
						C216.2,115.7,216.2,115.7,216.2,115.7z M207,114.1V67.2l-24.6-24.6h-19.3c0.8,2,1.9,3.8,3.3,5c0.2,0.2,0.4,0.2,0.6,0.4l0.1-0.1
						c4.8,4.4,7.9,11.5,7.9,19.5c0,0.2,0,0.4-0.1,0.5c5.5,3.2,9.2,9,9.2,15.8c0,10.1-8.2,18.3-18.3,18.3s-18.3-8.2-18.3-18.3
						c0-9.8,7.8-17.8,17.5-18.2c-0.4-4.1-2-7.5-4.3-9.7c-0.2-0.2-0.4-0.2-0.6-0.4l-0.1,0.1c-3.4-3.2-5.9-7.7-7.1-12.9h-17.4
						L34.9,143.3l71.5,71.5L207,114.1z M175,83.8c0-2.2-0.8-4.1-2-5.7c-2.8,7.1-5.9,8.7-5.9,8.7c-0.9,0.9-2.1,1.5-3.5,1.5
						c-2.7,0-4.9-2.3-4.9-5.2c0-1.7,0.8-3.2,2-4.1c1.1-1,2.1-2.5,2.8-4c-3.9,1-6.8,4.6-6.8,8.8c0,5.1,4.1,9.2,9.2,9.2
						C170.9,92.9,175,88.8,175,83.8z"/>
					<path id="XMLID_600_" class="st4" d="M132.5,149.4c1.7,1.7,1.7,4.6,0,6.3c-1.7,1.7-4.6,1.7-6.3,0l-32.3-32.3
						c-1.7-1.7-1.7-4.6,0-6.3c1.7-1.7,4.6-1.7,6.3,0L132.5,149.4z"/>
					<path id="XMLID_599_" class="st4" d="M114.2,167.7c1.7,1.7,1.7,4.6,0,6.3c-1.7,1.7-4.6,1.7-6.3,0l-32.3-32.3
						c-1.7-1.7-1.7-4.6,0-6.3c1.7-1.7,4.6-1.7,6.3,0L114.2,167.7z"/>
				</g>
			</g>
		</g>
		<g id="XMLID_588_">
			<g id="XMLID_589_">
				<path id="XMLID_592_" class="st2" d="M216.2,115.7L216.2,115.7c0,1.5-0.7,2.8-1.8,3.6L110,223.7c-0.1,0.2-0.2,0.5-0.4,0.7
					c-0.9,0.9-2.1,1.3-3.3,1.3c-1.2,0-2.4-0.4-3.3-1.3c-0.2-0.2-0.3-0.4-0.4-0.7L25.9,147c-0.2-0.2-0.5-0.2-0.7-0.4
					c-0.9-0.9-1.3-2.1-1.3-3.3c0-1.2,0.4-2.4,1.3-3.3c0.2-0.2,0.4-0.3,0.7-0.4L130.2,35.2c0.8-1.1,2.1-1.8,3.6-1.8h0.1c0,0,0,0,0,0
					h18.4c0.6-6.9,3.4-12.9,7.6-16.9l0.1,0.1c0.9-0.9,2.1-1.5,3.5-1.5c2.7,0,4.9,2.3,4.9,5.2c0,1.7-0.8,3.2-2,4.1
					c-2.2,2-3.7,5.2-4.3,9H184c0,0,0,0,0,0h0.1c1.5,0,2.7,0.7,3.5,1.8l26.7,26.7c1.1,0.8,1.8,2.1,1.8,3.6v0.1c0,0,0,0,0,0V115.7
					C216.2,115.7,216.2,115.7,216.2,115.7z M207,114.1V67.2l-24.6-24.6h-19.3c0.8,2,1.9,3.8,3.3,5c0.2,0.2,0.4,0.2,0.6,0.4l0.1-0.1
					c4.8,4.4,7.9,11.5,7.9,19.5c0,0.2,0,0.4-0.1,0.5c5.5,3.2,9.2,9,9.2,15.8c0,10.1-8.2,18.3-18.3,18.3s-18.3-8.2-18.3-18.3
					c0-9.8,7.8-17.8,17.5-18.2c-0.4-4.1-2-7.5-4.3-9.7c-0.2-0.2-0.4-0.2-0.6-0.4l-0.1,0.1c-3.4-3.2-5.9-7.7-7.1-12.9h-17.4
					L34.9,143.3l71.5,71.5L207,114.1z M175,83.8c0-2.2-0.8-4.1-2-5.7c-2.8,7.1-5.9,8.7-5.9,8.7c-0.9,0.9-2.1,1.5-3.5,1.5
					c-2.7,0-4.9-2.3-4.9-5.2c0-1.7,0.8-3.2,2-4.1c1.1-1,2.1-2.5,2.8-4c-3.9,1-6.8,4.6-6.8,8.8c0,5.1,4.1,9.2,9.2,9.2
					C170.9,92.9,175,88.8,175,83.8z"/>
				<path id="XMLID_591_" class="st2" d="M132.5,149.4c1.7,1.7,1.7,4.6,0,6.3c-1.7,1.7-4.6,1.7-6.3,0l-32.3-32.3
					c-1.7-1.7-1.7-4.6,0-6.3c1.7-1.7,4.6-1.7,6.3,0L132.5,149.4z"/>
				<path id="XMLID_590_" class="st2" d="M114.2,167.7c1.7,1.7,1.7,4.6,0,6.3c-1.7,1.7-4.6,1.7-6.3,0l-32.3-32.3
					c-1.7-1.7-1.7-4.6,0-6.3c1.7-1.7,4.6-1.7,6.3,0L114.2,167.7z"/>
			</g>
		</g>
		<g id="XMLID_580_">
			<g id="XMLID_581_">
				<path id="XMLID_584_" class="st5" d="M216.2,115.7L216.2,115.7c0,1.5-0.7,2.8-1.8,3.6L110,223.7c-0.1,0.2-0.2,0.5-0.4,0.7
					c-0.9,0.9-2.1,1.3-3.3,1.3c-1.2,0-2.4-0.4-3.3-1.3c-0.2-0.2-0.3-0.4-0.4-0.7L25.9,147c-0.2-0.2-0.5-0.2-0.7-0.4
					c-0.9-0.9-1.3-2.1-1.3-3.3c0-1.2,0.4-2.4,1.3-3.3c0.2-0.2,0.4-0.3,0.7-0.4L130.2,35.2c0.8-1.1,2.1-1.8,3.6-1.8h0.1c0,0,0,0,0,0
					h18.4c0.6-6.9,3.4-12.9,7.6-16.9l0.1,0.1c0.9-0.9,2.1-1.5,3.5-1.5c2.7,0,4.9,2.3,4.9,5.2c0,1.7-0.8,3.2-2,4.1
					c-2.2,2-3.7,5.2-4.3,9H184c0,0,0,0,0,0h0.1c1.5,0,2.7,0.7,3.5,1.8l26.7,26.7c1.1,0.8,1.8,2.1,1.8,3.6v0.1c0,0,0,0,0,0V115.7
					C216.2,115.7,216.2,115.7,216.2,115.7z M207,114.1V67.2l-24.6-24.6h-19.3c0.8,2,1.9,3.8,3.3,5c0.2,0.2,0.4,0.2,0.6,0.4l0.1-0.1
					c4.8,4.4,7.9,11.5,7.9,19.5c0,0.2,0,0.4-0.1,0.5c5.5,3.2,9.2,9,9.2,15.8c0,10.1-8.2,18.3-18.3,18.3s-18.3-8.2-18.3-18.3
					c0-9.8,7.8-17.8,17.5-18.2c-0.4-4.1-2-7.5-4.3-9.7c-0.2-0.2-0.4-0.2-0.6-0.4l-0.1,0.1c-3.4-3.2-5.9-7.7-7.1-12.9h-17.4
					L34.9,143.3l71.5,71.5L207,114.1z M175,83.8c0-2.2-0.8-4.1-2-5.7c-2.8,7.1-5.9,8.7-5.9,8.7c-0.9,0.9-2.1,1.5-3.5,1.5
					c-2.7,0-4.9-2.3-4.9-5.2c0-1.7,0.8-3.2,2-4.1c1.1-1,2.1-2.5,2.8-4c-3.9,1-6.8,4.6-6.8,8.8c0,5.1,4.1,9.2,9.2,9.2
					C170.9,92.9,175,88.8,175,83.8z"/>
				<path id="XMLID_583_" class="st5" d="M132.5,149.4c1.7,1.7,1.7,4.6,0,6.3c-1.7,1.7-4.6,1.7-6.3,0l-32.3-32.3
					c-1.7-1.7-1.7-4.6,0-6.3c1.7-1.7,4.6-1.7,6.3,0L132.5,149.4z"/>
				<path id="XMLID_582_" class="st5" d="M114.2,167.7c1.7,1.7,1.7,4.6,0,6.3c-1.7,1.7-4.6,1.7-6.3,0l-32.3-32.3
					c-1.7-1.7-1.7-4.6,0-6.3c1.7-1.7,4.6-1.7,6.3,0L114.2,167.7z"/>
			</g>
		</g>
	</g>
	<g id="XMLID_27_" class="st1">
		<g id="XMLID_51_">
			<path id="XMLID_52_" class="st6" d="M37.7,226.5c-0.3-0.9-0.6-1.7-1-2.3c-0.4-0.7-0.9-1.3-1.6-1.9c-0.7-0.6-1.3-1.1-1.9-1.5
				c-0.6-0.4-1.3-0.8-2.3-1.3c-1-0.5-1.7-0.8-2.3-1.1c-0.6-0.2-1.4-0.5-2.4-1c-0.9-0.4-1.7-0.6-2.1-0.8c-0.5-0.2-1.1-0.5-1.8-0.8
				c-0.8-0.4-1.3-0.7-1.7-0.9c-0.4-0.3-0.8-0.6-1.2-1c-0.4-0.4-0.7-0.8-0.9-1.3c-0.2-0.4-0.3-0.9-0.3-1.5c0-1.4,0.6-2.5,1.8-3.4
				c1.2-0.9,2.8-1.3,4.7-1.3c0.8,0,1.7,0.1,2.6,0.3c0.9,0.2,1.6,0.5,2.3,0.8c0.6,0.3,1.2,0.6,1.8,1c0.6,0.4,0.9,0.6,1.2,0.8
				c0.2,0.2,0.4,0.3,0.4,0.4c0.3,0.2,0.5,0.3,0.8,0.2c0.3,0,0.5-0.2,0.7-0.5l2.4-4.4c0.2-0.4,0.2-0.8-0.2-1.1
				c-0.1-0.1-0.3-0.3-0.5-0.4c-0.2-0.2-0.6-0.5-1.2-0.9c-0.6-0.4-1.2-0.8-1.9-1.1c-0.7-0.3-1.6-0.7-2.6-1c-1.1-0.3-2.2-0.6-3.3-0.7
				v-5.3c0-0.3-0.1-0.5-0.3-0.7c-0.2-0.2-0.4-0.3-0.7-0.3h-4.1c-0.3,0-0.5,0.1-0.7,0.3c-0.2,0.2-0.3,0.4-0.3,0.7v5.4
				c-3.2,0.6-5.7,2-7.7,4c-2,2.1-3,4.5-3,7.3c0,0.8,0.1,1.6,0.3,2.4c0.2,0.7,0.4,1.4,0.6,2c0.3,0.6,0.6,1.2,1.1,1.8
				c0.5,0.6,0.9,1.1,1.3,1.5c0.4,0.4,1,0.8,1.6,1.3c0.7,0.4,1.2,0.8,1.7,1.1c0.5,0.3,1.1,0.6,1.9,0.9c0.8,0.4,1.4,0.6,1.9,0.8
				c0.5,0.2,1.1,0.4,1.9,0.8c1.1,0.4,1.9,0.8,2.4,1c0.5,0.2,1.2,0.6,2,1c0.8,0.4,1.4,0.8,1.8,1.1c0.4,0.3,0.7,0.8,1,1.3
				c0.3,0.5,0.5,1,0.5,1.6c0,1.6-0.6,2.8-1.9,3.7c-1.2,0.9-2.7,1.3-4.3,1.3c-0.7,0-1.5-0.1-2.2-0.2c-2.6-0.5-5.1-1.8-7.3-3.8
				l-0.1-0.1c-0.2-0.2-0.4-0.3-0.7-0.3c-0.3,0-0.6,0.2-0.7,0.4l-3.1,4.1c-0.3,0.4-0.3,0.8,0.1,1.2c0.1,0.1,0.3,0.3,0.5,0.5
				c0.3,0.2,0.7,0.6,1.4,1.1c0.7,0.5,1.4,1,2.2,1.5c0.8,0.5,1.8,0.9,3.1,1.3c1.2,0.4,2.5,0.8,3.9,0.9v5.3c0,0.3,0.1,0.5,0.3,0.7
				c0.2,0.2,0.4,0.3,0.7,0.3h4.1c0.3,0,0.5-0.1,0.7-0.3s0.3-0.4,0.3-0.7v-5.3c3.2-0.5,5.8-1.9,7.8-4.1c2-2.2,3-4.9,3-8
				C38.1,228.3,37.9,227.4,37.7,226.5z"/>
		</g>
	</g>
	<g id="XMLID_18_" class="st1">
		<path id="XMLID_32_" class="st6" d="M141.3,102c-0.7-0.4-1.5-0.1-1.9,0.6L129,123.1c-0.4,0.7-0.1,1.5,0.6,1.9
			c0.2,0.1,0.4,0.2,0.6,0.2c0.5,0,1-0.3,1.2-0.8l10.4-20.5C142.2,103.2,142,102.4,141.3,102z"/>
		<path id="XMLID_41_" class="st6" d="M133.8,108.7c0-2.9-2.4-5.3-5.3-5.3c-2.9,0-5.3,2.4-5.3,5.3c0,2.9,2.4,5.3,5.3,5.3
			C131.4,114.1,133.8,111.7,133.8,108.7z M128.5,111.3c-1.4,0-2.5-1.1-2.5-2.5c0-1.4,1.1-2.5,2.5-2.5c1.4,0,2.5,1.1,2.5,2.5
			C131,110.1,129.9,111.3,128.5,111.3z"/>
		<path id="XMLID_35_" class="st6" d="M142.4,112.9c-2.9,0-5.3,2.4-5.3,5.3s2.4,5.3,5.3,5.3c2.9,0,5.3-2.4,5.3-5.3
			C147.7,115.3,145.4,112.9,142.4,112.9z M142.4,120.7c-1.4,0-2.5-1.1-2.5-2.5c0-1.4,1.1-2.5,2.5-2.5c1.4,0,2.5,1.1,2.5,2.5
			C144.9,119.6,143.8,120.7,142.4,120.7z"/>
	</g>
	<g id="XMLID_25_" class="st1">
		<g id="XMLID_91_">
			<g id="XMLID_92_">
				<path id="XMLID_95_" class="st2" d="M71.4,11.4c-1-1-2.3-1.6-3.8-1.6H14.4c-1.5,0-2.7,0.5-3.8,1.6c-1,1-1.6,2.3-1.6,3.8v40.5
					c0,1.5,0.5,2.7,1.6,3.8c1,1,2.3,1.6,3.8,1.6h53.2c1.5,0,2.7-0.5,3.8-1.6c1-1,1.6-2.3,1.6-3.8V15.2
					C72.9,13.7,72.4,12.5,71.4,11.4z M68.7,55.7c0,0.3-0.1,0.5-0.3,0.7c-0.2,0.2-0.5,0.3-0.7,0.3H14.4c-0.3,0-0.5-0.1-0.7-0.3
					c-0.2-0.2-0.3-0.5-0.3-0.7V35.4h55.4L68.7,55.7L68.7,55.7z M68.7,22.7H13.3v-7.5c0-0.3,0.1-0.5,0.3-0.7c0.2-0.2,0.5-0.3,0.7-0.3
					h53.2c0.3,0,0.5,0.1,0.7,0.3c0.2,0.2,0.3,0.5,0.3,0.7L68.7,22.7L68.7,22.7z"/>
				<rect id="XMLID_94_" x="17.6" y="48.2" class="st2" width="8.5" height="4.3"/>
				<rect id="XMLID_93_" x="30.3" y="48.2" class="st2" width="12.8" height="4.3"/>
			</g>
		</g>
		<g id="XMLID_75_">
			<g id="XMLID_76_">
				<path id="XMLID_79_" class="st5" d="M71.4,11.4c-1-1-2.3-1.6-3.8-1.6H14.4c-1.5,0-2.7,0.5-3.8,1.6c-1,1-1.6,2.3-1.6,3.8v40.5
					c0,1.5,0.5,2.7,1.6,3.8c1,1,2.3,1.6,3.8,1.6h53.2c1.5,0,2.7-0.5,3.8-1.6c1-1,1.6-2.3,1.6-3.8V15.2
					C72.9,13.7,72.4,12.5,71.4,11.4z M68.7,55.7c0,0.3-0.1,0.5-0.3,0.7c-0.2,0.2-0.5,0.3-0.7,0.3H14.4c-0.3,0-0.5-0.1-0.7-0.3
					c-0.2-0.2-0.3-0.5-0.3-0.7V35.4h55.4L68.7,55.7L68.7,55.7z M68.7,22.7H13.3v-7.5c0-0.3,0.1-0.5,0.3-0.7c0.2-0.2,0.5-0.3,0.7-0.3
					h53.2c0.3,0,0.5,0.1,0.7,0.3c0.2,0.2,0.3,0.5,0.3,0.7L68.7,22.7L68.7,22.7z"/>
				<rect id="XMLID_78_" x="17.6" y="48.2" class="st5" width="8.5" height="4.3"/>
				<rect id="XMLID_77_" x="30.3" y="48.2" class="st5" width="12.8" height="4.3"/>
			</g>
		</g>
	</g>
</g>
</svg>
